<?xml version="1.0" standalone="no"?>
<!DOCTYPE svg PUBLIC "-//W3C//DTD SVG 20010904//EN"
 "http://www.w3.org/TR/2001/REC-SVG-20010904/DTD/svg10.dtd">
<svg version="1.0" xmlns="http://www.w3.org/2000/svg"
 width="706.000000pt" height="706.000000pt" viewBox="0 0 706.000000 706.000000"
 preserveAspectRatio="xMidYMid meet">
<metadata>
Created by potrace 1.11, written by Peter Selinger 2001-2013
</metadata>
<g transform="translate(0.000000,706.000000) scale(0.100000,-0.100000)"
fill="#000000" stroke="none">
<path d="M1 6638 c1 -233 3 -416 5 -408 3 11 20 15 63 15 33 0 63 -3 67 -7 13
-14 24 -8 24 12 0 12 -7 20 -17 21 -43 1 25 18 78 18 46 1 61 6 84 27 17 15
25 19 22 10 -5 -14 -3 -15 12 -6 11 5 17 17 15 27 -2 10 3 27 12 38 15 19 16
19 29 2 8 -11 22 -17 37 -15 21 3 21 5 -12 23 -19 10 -48 20 -65 21 -16 1 -24
-1 -17 -3 14 -6 16 -33 2 -33 -5 0 -10 5 -10 10 0 26 -40 -13 -45 -44 -6 -32
-9 -34 -57 -39 -28 -4 -54 -4 -59 -2 -4 3 -2 18 4 34 9 25 14 28 29 20 11 -6
29 -9 41 -7 17 2 23 11 27 43 4 32 9 41 28 43 15 2 22 9 18 17 -3 8 2 12 12
10 9 -1 16 -8 14 -14 -1 -6 5 -11 13 -11 8 0 14 3 14 8 -3 20 2 42 10 42 17 0
24 -42 10 -51 -8 -5 -9 -9 -4 -9 20 0 36 17 44 46 6 22 13 29 34 29 19 1 23
-2 16 -11 -5 -6 -7 -19 -3 -28 3 -9 1 -16 -5 -16 -6 0 -11 11 -11 25 0 14 -4
25 -9 25 -5 0 -8 -18 -7 -40 0 -22 4 -40 9 -40 4 0 7 5 7 10 0 6 5 10 10 10 6
0 10 -14 10 -32 l0 -32 22 21 c16 16 21 34 21 67 0 44 2 46 29 46 17 0 28 5
27 13 -3 25 1 38 11 32 6 -3 10 -15 10 -26 0 -15 6 -19 23 -17 12 2 27 9 33
17 18 23 35 5 22 -24 -9 -19 -20 -25 -54 -27 -59 -4 -44 -24 24 -30 46 -5 52
-3 52 14 0 29 19 58 36 58 9 0 14 6 11 13 -4 10 3 12 24 9 29 -4 40 -27 17
-35 -16 -5 -10 -13 19 -21 19 -6 25 -2 33 19 9 23 12 24 31 14 15 -8 24 -8 32
0 15 15 67 14 67 -1 0 -7 7 -2 16 10 9 13 14 28 11 35 -3 8 7 12 27 13 l32 1
-15 -33 c-10 -22 -18 -30 -22 -22 -10 16 -15 10 -24 -29 -7 -33 8 -47 19 -18
9 23 26 18 26 -9 0 -13 7 -27 16 -30 24 -9 27 -7 13 10 -22 27 -21 78 2 107
11 15 28 27 38 27 9 0 22 5 29 12 7 7 15 8 24 1 20 -15 58 -14 58 3 0 8 4 14
9 14 13 0 41 -29 41 -41 0 -6 4 -7 10 -4 6 3 7 -1 4 -9 -4 -9 -1 -16 6 -16 7
0 10 -7 6 -15 -3 -9 0 -15 9 -15 18 0 20 31 3 48 -6 6 -8 15 -3 19 4 5 10 2
12 -4 8 -23 25 -14 21 11 -4 19 -1 22 14 18 14 -3 16 -8 8 -17 -8 -9 -6 -14 6
-19 24 -9 26 -8 19 14 -6 18 -3 19 24 14 19 -4 31 -2 31 4 0 6 -12 12 -27 14
l-27 3 26 29 25 30 18 -42 c19 -42 37 -50 43 -19 2 10 -3 17 -12 17 -16 0 -21
12 -9 23 3 4 12 2 20 -4 10 -9 13 -8 13 4 0 10 12 15 45 15 26 1 45 -3 45 -9
0 -7 -10 -9 -24 -5 -19 5 -23 3 -20 -12 3 -9 -2 -26 -10 -37 -12 -16 -15 -17
-16 -4 0 8 5 20 12 27 6 6 9 15 5 18 -3 4 -14 -10 -23 -29 -10 -21 -26 -37
-37 -39 -33 -5 -31 -25 3 -25 21 0 29 5 28 15 -2 10 6 15 24 16 14 1 24 -2 22
-6 -6 -10 58 2 70 13 11 9 -34 30 -47 22 -5 -3 -4 4 2 16 7 11 17 21 25 21 9
0 11 13 6 50 -4 28 -3 50 2 50 4 0 8 -11 8 -24 0 -38 19 -79 34 -73 9 4 12 -2
8 -19 -2 -13 -8 -24 -13 -24 -5 0 -9 -8 -9 -17 0 -15 2 -14 15 3 8 10 15 14
15 9 0 -6 18 -10 40 -10 32 0 40 3 40 17 0 10 -4 18 -10 18 -5 0 -10 -4 -10
-10 0 -5 -13 -10 -30 -10 -20 0 -30 5 -30 15 0 9 7 15 17 13 11 -2 23 8 32 27
15 28 16 29 19 7 4 -26 22 -20 22 9 0 10 5 19 10 19 6 0 10 -13 10 -30 0 -16
5 -30 11 -30 7 0 9 11 5 30 -5 26 -3 30 17 30 16 0 23 -6 23 -19 0 -11 -4 -17
-8 -15 -14 9 -8 -23 7 -36 19 -15 38 -3 32 21 -4 15 0 19 22 19 25 0 27 3 23
34 -2 19 1 37 8 41 20 12 30 -9 21 -43 -9 -30 -8 -32 15 -32 30 0 30 -3 -2
-46 -24 -30 -24 -34 -8 -34 12 0 26 15 39 43 23 49 55 63 55 23 0 -14 -4 -28
-10 -31 -12 -7 -14 -45 -2 -45 5 0 18 23 30 50 12 28 26 50 32 50 5 0 10 14
10 31 0 17 4 28 10 24 6 -3 10 -18 10 -31 0 -27 24 -29 26 -3 1 8 2 20 3 27 1
8 10 12 24 10 18 -2 22 -9 22 -38 0 -19 -3 -37 -7 -40 -8 -6 -11 -27 -9 -60 2
-25 2 -25 16 5 7 17 14 23 14 15 1 -13 2 -13 11 0 8 13 11 12 23 -4 13 -18 14
-17 20 14 6 28 9 31 23 19 13 -10 17 -10 26 2 7 11 11 11 15 2 8 -20 23 -15
23 7 0 24 22 26 40 5 7 -8 18 -15 25 -15 7 0 15 7 19 15 3 8 1 15 -3 15 -5 0
-11 -6 -14 -12 -7 -20 -17 -4 -24 36 -6 39 11 51 22 16 5 -15 12 -19 31 -14
20 5 24 2 24 -15 0 -13 6 -21 18 -21 20 0 46 36 36 52 -4 6 -1 9 6 6 7 -2 17
-14 21 -27 6 -14 5 -20 -1 -16 -13 8 -40 -19 -40 -39 0 -17 15 -22 24 -7 12
18 41 5 38 -18 -2 -11 2 -21 7 -21 6 0 11 12 11 26 0 14 4 23 10 19 5 -3 10
-15 10 -26 0 -11 5 -17 10 -14 6 3 10 16 10 28 1 20 2 21 14 5 18 -24 23 -23
32 10 8 31 8 24 0 81 -6 39 -5 43 9 31 11 -9 15 -31 15 -78 0 -59 1 -64 14
-47 8 11 12 30 10 43 -7 39 7 46 32 17 23 -27 23 -27 48 -8 14 10 26 21 26 26
0 11 70 8 70 -3 0 -5 -8 -10 -17 -11 -50 -3 -57 -5 -60 -16 -3 -7 2 -13 11
-13 9 0 16 -4 16 -10 0 -5 -5 -10 -10 -10 -6 0 -5 -8 2 -20 9 -15 20 -19 36
-15 12 3 22 1 22 -5 0 -5 5 -10 10 -10 6 0 10 6 10 14 0 22 49 56 79 56 15 0
34 -9 44 -20 16 -19 16 -21 0 -39 -9 -11 -22 -17 -29 -14 -7 2 -15 -5 -19 -16
-3 -12 -10 -21 -15 -21 -5 0 -17 -3 -27 -6 -17 -5 -17 -5 0 9 15 13 16 15 2
21 -11 4 -19 -3 -25 -20 -6 -14 -16 -24 -22 -22 -7 3 -18 -1 -25 -8 -15 -15
-17 -28 -3 -19 6 3 10 1 10 -5 0 -6 -11 -8 -27 -4 -44 10 -48 10 -45 -3 1 -7
-4 -13 -12 -13 -18 0 -39 26 -32 39 7 11 -22 24 -35 15 -14 -8 -11 -25 7 -46
19 -20 16 -22 -48 -33 -24 -4 -38 -2 -38 5 0 5 -8 10 -17 10 -13 0 -14 -3 -5
-8 8 -6 0 -15 -28 -30 -26 -14 -40 -17 -40 -9 0 8 -3 9 -8 1 -4 -6 -43 -27
-87 -48 -44 -20 -87 -41 -95 -46 -8 -6 -36 -21 -61 -34 -25 -14 -71 -49 -102
-78 -67 -64 -117 -108 -124 -108 -9 0 -121 -90 -149 -120 -16 -16 -37 -30 -46
-30 -23 0 -41 -33 -26 -48 8 -8 4 -14 -16 -22 -16 -6 -30 -19 -33 -30 -3 -11
-12 -20 -20 -20 -9 0 -13 -6 -9 -15 3 -9 0 -15 -9 -15 -8 0 -14 -3 -13 -7 5
-16 -21 -69 -46 -97 -14 -16 -26 -33 -26 -37 0 -4 -6 -14 -12 -21 -14 -15 -22
-27 -67 -103 -17 -27 -44 -65 -60 -83 -17 -18 -28 -38 -25 -46 3 -7 -2 -16
-10 -19 -9 -4 -16 -18 -16 -35 0 -15 -5 -33 -10 -38 -13 -13 -92 -248 -116
-340 -28 -115 -1 -285 59 -366 26 -35 46 -36 39 -2 -4 23 -2 25 24 18 44 -10
44 -11 18 -59 -23 -45 -23 -75 1 -75 9 0 11 -26 8 -107 -2 -60 -6 -114 -8
-121 -3 -8 4 -25 15 -39 14 -18 20 -41 20 -77 0 -28 6 -60 14 -71 12 -18 22
-82 32 -210 3 -46 33 -152 58 -209 20 -45 30 -200 15 -229 -9 -15 -7 -19 10
-24 20 -5 25 -16 23 -58 -1 -11 5 -54 13 -95 43 -230 43 -234 11 -255 -23 -15
-28 -15 -67 4 -24 12 -48 21 -55 21 -7 0 -19 9 -27 21 -8 11 -26 21 -41 23
-14 1 -28 5 -31 8 -5 5 -83 -13 -100 -23 -5 -4 -22 -9 -37 -13 -16 -4 -28 -13
-28 -22 0 -11 6 -15 20 -11 18 5 19 3 6 -15 -10 -14 -29 -22 -55 -24 -33 -3
-43 0 -59 21 -23 29 -32 31 -32 10 0 -8 -4 -15 -10 -15 -5 0 -10 5 -10 10 0
17 -22 11 -57 -16 -19 -14 -41 -23 -49 -20 -22 9 -63 -11 -105 -52 -22 -20
-52 -44 -67 -52 -15 -8 -34 -20 -42 -25 -8 -5 -19 -10 -25 -11 -5 -1 -26 -11
-45 -23 -19 -12 -43 -24 -52 -27 -10 -4 -18 -10 -18 -14 0 -5 -14 -12 -32 -15
-18 -4 -48 -22 -66 -39 -60 -55 -123 -120 -139 -144 -16 -23 -97 -82 -113 -82
-4 0 -28 -18 -52 -40 -23 -22 -58 -47 -75 -56 -33 -16 -53 -59 -53 -112 0 -12
-7 -25 -15 -28 -8 -4 -15 -14 -15 -23 0 -9 -17 -27 -38 -41 -20 -14 -41 -30
-45 -37 -4 -7 -14 -13 -22 -13 -8 0 -12 -6 -9 -14 3 -8 -3 -19 -15 -25 -11 -6
-22 -19 -26 -30 -3 -10 -14 -21 -25 -24 -18 -5 -19 -21 -20 -502 l0 -498 34
27 c19 14 37 26 40 26 2 0 33 13 68 29 35 16 117 46 184 65 113 34 173 45 424
81 143 21 272 51 316 73 21 10 52 22 67 26 44 11 126 -5 155 -29 15 -12 33
-20 39 -18 7 3 13 -1 13 -9 0 -9 13 -14 40 -14 22 0 40 3 40 6 0 4 19 10 42
14 22 4 66 22 97 41 43 26 63 32 89 28 17 -3 32 -10 32 -15 0 -5 7 -16 15 -24
8 -9 15 -24 15 -35 0 -16 -7 -19 -44 -19 -26 0 -61 -9 -89 -25 -49 -25 -76
-28 -302 -27 -11 0 -48 3 -81 7 -54 7 -69 4 -118 -18 -80 -37 -166 -57 -286
-67 -101 -8 -247 -31 -320 -50 -19 -5 -64 -16 -100 -25 -89 -20 -327 -100
-359 -119 -8 -5 -11 -140 -11 -492 l0 -484 2046 0 c1931 0 2046 1 2051 18 2 9
25 33 50 52 57 44 103 89 103 100 0 5 7 16 16 25 20 20 96 132 116 171 8 16
29 55 46 87 18 31 32 66 32 78 0 11 7 22 15 25 8 4 15 16 15 28 0 30 23 92 42
113 9 10 19 37 23 60 4 24 11 46 17 49 6 4 8 -1 4 -12 -3 -11 -1 -26 4 -34 8
-12 10 -8 11 15 1 17 2 36 2 43 -1 6 3 12 8 12 5 0 9 -17 9 -37 0 -21 3 -48 6
-60 11 -39 23 -15 19 40 -1 28 -1 40 2 25 2 -16 8 -28 12 -28 13 0 11 -100 -4
-144 -7 -22 -16 -57 -19 -76 -3 -19 -8 -46 -11 -60 -8 -42 -9 -74 -1 -107 4
-19 3 -34 -3 -38 -6 -3 -11 -15 -11 -26 0 -17 -11 -24 -32 -20 -5 0 -8 -5 -8
-13 0 -8 -10 -23 -22 -33 -26 -20 -66 -72 -119 -153 -20 -30 -46 -65 -58 -78
l-22 -22 403 0 403 0 -3 45 c-2 25 1 59 8 74 10 25 18 29 63 35 29 3 81 6 117
6 37 0 71 5 77 11 7 7 6 35 -3 92 -8 45 -14 87 -14 92 0 29 22 39 102 45 46 4
103 12 128 18 25 6 106 18 180 27 74 9 149 21 166 26 17 5 91 18 165 29 192
29 508 28 784 -3 17 -2 20 4 20 38 l0 40 -120 6 c-372 19 -729 3 -861 -40 -33
-11 -121 -29 -195 -40 -74 -12 -154 -25 -179 -31 -67 -14 -195 -13 -208 3 -6
6 -13 30 -17 52 -4 22 -23 100 -42 174 -18 74 -32 140 -29 146 4 12 83 28 221
45 44 5 96 14 115 20 19 5 50 10 69 10 49 0 205 38 267 66 48 21 68 23 236 25
101 1 224 5 273 10 60 5 112 4 155 -4 85 -16 292 -16 297 -1 2 7 -4 19 -13 29
-14 14 -29 15 -91 10 -53 -6 -98 -3 -165 10 -83 16 -102 17 -217 4 -69 -8
-162 -13 -206 -12 -44 1 -118 3 -165 4 -82 2 -153 -15 -255 -61 -11 -5 -58
-14 -105 -20 -47 -6 -103 -16 -124 -21 -52 -14 -275 -36 -304 -31 -28 6 -29
12 -37 209 l-6 162 38 17 c24 10 84 20 158 25 106 6 139 13 275 58 85 28 167
51 183 51 15 0 47 -10 70 -22 34 -18 57 -22 117 -21 420 9 463 8 585 -16 143
-28 195 -41 214 -55 11 -8 13 -8 7 2 -22 36 -187 80 -391 103 -55 6 -194 9
-310 7 -190 -3 -214 -1 -250 16 -73 35 -110 33 -261 -19 -130 -44 -148 -48
-283 -56 -80 -4 -148 -6 -152 -3 -4 2 -13 30 -18 62 -17 88 -33 162 -47 220
-13 53 -10 80 10 94 6 4 49 8 96 8 47 0 106 7 131 14 54 17 308 13 374 -6 22
-6 134 -12 250 -13 l210 -3 130 -47 c72 -26 146 -51 165 -57 46 -13 226 -104
267 -134 17 -13 36 -24 41 -24 6 0 12 -4 14 -8 2 -4 49 -45 106 -90 l102 -83
0 2871 0 2870 -3530 0 -3530 0 1 -422z m3159 222 c0 -5 -4 -10 -10 -10 -5 0
-10 5 -10 10 0 6 5 10 10 10 6 0 10 -4 10 -10z m-153 -32 c-3 -8 -6 -5 -6 6
-1 11 2 17 5 13 3 -3 4 -12 1 -19z m213 -2 c0 -3 -4 -8 -10 -11 -5 -3 -10 -1
-10 4 0 6 5 11 10 11 6 0 10 -2 10 -4z m-903 -22 c-3 -3 -12 -4 -19 -1 -8 3
-5 6 6 6 11 1 17 -2 13 -5z m-1190 -26 c-3 -8 -6 -5 -6 6 -1 11 2 17 5 13 3
-3 4 -12 1 -19z m667 1 c-3 -5 -10 -7 -15 -3 -5 3 -7 10 -3 15 3 5 10 7 15 3
5 -3 7 -10 3 -15z m211 11 c3 -5 1 -10 -4 -10 -6 0 -11 5 -11 10 0 6 2 10 4
10 3 0 8 -4 11 -10z m45 -15 c0 -14 -6 -25 -14 -25 -9 0 -12 8 -8 25 2 14 8
25 13 25 5 0 9 -11 9 -25z m63 -3 c-3 -12 -12 -22 -19 -22 -18 0 -18 6 4 28
21 23 23 22 15 -6z m1047 18 c0 -5 -10 -10 -22 -10 -19 0 -20 2 -8 10 19 13
30 13 30 0z m-1258 -42 c-7 -7 -12 -8 -12 -2 0 14 12 26 19 19 2 -3 -1 -11 -7
-17z m273 12 c3 -5 -1 -10 -9 -10 -9 0 -16 5 -16 10 0 6 4 10 9 10 6 0 13 -4
16 -10z m70 -9 c-3 -6 -11 -11 -16 -11 -5 0 -4 6 3 14 14 16 24 13 13 -3z
m-545 -1 c8 -5 11 -12 7 -16 -4 -4 -15 0 -24 9 -18 18 -8 23 17 7z m180 -21
c0 -5 -9 -9 -20 -9 -19 0 -26 11 -14 23 8 8 34 -3 34 -14z m452 -17 c-7 -2
-12 -8 -12 -13 0 -6 5 -7 11 -3 7 4 10 2 8 -5 -8 -23 -24 -11 -24 17 -1 38 6
48 18 26 7 -13 7 -19 -1 -22z m446 26 c8 -8 15 -8 27 2 12 10 19 10 27 2 9 -9
7 -12 -10 -12 -15 0 -22 -6 -22 -20 0 -11 -4 -20 -10 -20 -5 0 -10 9 -10 20 0
12 -10 24 -22 30 -14 5 -17 9 -7 9 8 1 20 -4 27 -11z m-1333 -27 c-9 -16 -25
-3 -18 15 4 10 9 12 15 6 6 -6 7 -15 3 -21z m225 -8 c0 -26 -3 -34 -11 -26 -9
9 -3 63 7 63 2 0 4 -17 4 -37z m140 27 c0 -5 -4 -10 -10 -10 -5 0 -10 5 -10
10 0 6 5 10 10 10 6 0 10 -4 10 -10z m274 -6 c8 -21 -1 -34 -25 -34 -22 0 -23
4 -9 31 13 23 26 24 34 3z m-538 -13 c-10 -11 -25 -17 -37 -14 -37 10 -18 31
30 32 23 1 23 0 7 -18z m1568 1 c7 10 16 15 19 11 12 -11 8 -22 -13 -33 -22
-12 -50 6 -50 32 1 8 6 5 16 -7 14 -19 16 -19 28 -3z m256 8 c0 -5 -2 -10 -4
-10 -3 0 -8 5 -11 10 -3 6 -1 10 4 10 6 0 11 -4 11 -10z m-1640 -10 c0 -5 -4
-10 -10 -10 -5 0 -10 5 -10 10 0 6 5 10 10 10 6 0 10 -4 10 -10z m1680 0 c0
-5 -2 -10 -4 -10 -3 0 -8 5 -11 10 -3 6 -1 10 4 10 6 0 11 -4 11 -10z m-1130
-25 c0 -8 -4 -15 -10 -15 -5 0 -10 7 -10 15 0 8 5 15 10 15 6 0 10 -7 10 -15z
m920 -6 c0 -4 3 -16 6 -26 5 -15 4 -15 -5 -3 -5 8 -13 11 -17 7 -4 -4 0 -15
10 -25 16 -16 18 -16 38 8 l20 25 -3 -25 c-3 -20 -10 -25 -31 -25 -15 -1 -30
-4 -34 -8 -14 -13 -32 -7 -30 11 1 13 -7 17 -33 19 -18 1 -38 7 -45 13 -8 9
-4 11 19 9 48 -3 65 0 65 14 0 7 9 13 20 13 11 0 20 -3 20 -7z m30 -9 c0 -5
-2 -10 -4 -10 -3 0 -8 5 -11 10 -3 6 -1 10 4 10 6 0 11 -4 11 -10z m72 -5 c0
-5 -5 -11 -11 -13 -6 -2 -11 4 -11 13 0 9 5 15 11 13 6 -2 11 -8 11 -13z
m-2137 -5 c3 -5 2 -10 -4 -10 -5 0 -13 5 -16 10 -3 6 -2 10 4 10 5 0 13 -4 16
-10z m75 0 c0 -5 -4 -10 -9 -10 -6 0 -13 5 -16 10 -3 6 1 10 9 10 9 0 16 -4
16 -10z m120 6 c0 -2 -7 -7 -16 -10 -8 -3 -12 -2 -9 4 6 10 25 14 25 6z m25
-6 c3 -5 1 -10 -4 -10 -6 0 -11 5 -11 10 0 6 2 10 4 10 3 0 8 -4 11 -10z
m2202 4 c-3 -3 -12 -4 -19 -1 -8 3 -5 6 6 6 11 1 17 -2 13 -5z m-2727 -24 c0
-5 -7 -10 -15 -10 -8 0 -15 5 -15 10 0 6 7 10 15 10 8 0 15 -4 15 -10z m85 0
c22 -8 26 -15 21 -35 -3 -13 -2 -27 4 -30 5 -3 10 -13 10 -21 0 -10 -5 -9 -20
6 -11 11 -20 27 -20 35 0 8 -5 15 -11 15 -7 0 -8 -11 -4 -30 8 -38 -11 -41
-26 -3 -7 18 -6 28 1 33 6 4 8 14 4 23 -7 20 4 21 41 7z m-215 -10 c0 -5 -5
-10 -11 -10 -5 0 -7 5 -4 10 3 6 8 10 11 10 2 0 4 -4 4 -10z m405 0 c3 -5 1
-10 -4 -10 -6 0 -11 5 -11 10 0 6 2 10 4 10 3 0 8 -4 11 -10z m-95 -26 c0 -8
-4 -12 -10 -9 -5 3 -10 10 -10 16 0 5 5 9 10 9 6 0 10 -7 10 -16z m2084 10
c14 -5 14 -7 0 -22 -13 -13 -17 -13 -25 -1 -17 27 -8 36 25 23z m-2252 -29
c-5 -28 -9 -30 -27 -15 -12 10 -15 10 -15 0 0 -8 -3 -11 -6 -8 -3 3 1 16 8 27
16 26 44 23 40 -4z m-172 0 c10 -13 9 -15 -8 -15 -22 0 -36 13 -25 24 10 10
20 7 33 -9z m55 5 c-3 -5 -11 -10 -16 -10 -6 0 -7 5 -4 10 3 6 11 10 16 10 6
0 7 -4 4 -10z m2335 -9 c0 -17 -18 -21 -24 -6 -3 9 0 15 9 15 8 0 15 -4 15 -9z
m-2685 -51 c3 -5 1 -10 -4 -10 -6 0 -11 5 -11 10 0 6 2 10 4 10 3 0 8 -4 11
-10z m2535 -10 c0 -5 -2 -10 -4 -10 -3 0 -8 5 -11 10 -3 6 -1 10 4 10 6 0 11
-4 11 -10z m-2780 -150 c0 -5 -7 -10 -16 -10 -8 0 -12 5 -9 10 3 6 10 10 16
10 5 0 9 -4 9 -10z m166 -17 c-10 -10 -19 5 -10 18 6 11 8 11 12 0 2 -7 1 -15
-2 -18z m-185 -28 c-1 -15 -24 -12 -29 3 -3 9 2 13 12 10 10 -1 17 -7 17 -13z
m-81 -39 c0 -2 -7 -7 -16 -10 -8 -3 -12 -2 -9 4 6 10 25 14 25 6z m34 -11 c-4
-8 -8 -15 -10 -15 -2 0 -4 7 -4 15 0 8 4 15 10 15 5 0 7 -7 4 -15z m5583 -387
c-3 -8 -6 -5 -6 6 -1 11 2 17 5 13 3 -3 4 -12 1 -19z m209 -74 c-19 -18 -21
-11 -4 19 7 14 13 17 15 10 3 -7 -3 -20 -11 -29z m-40 -2 c-17 -16 -18 -16 -5
5 7 12 15 20 18 17 3 -2 -3 -12 -13 -22z m-186 -2 c0 -5 -5 -10 -11 -10 -5 0
-7 5 -4 10 3 6 8 10 11 10 2 0 4 -4 4 -10z m90 -41 c0 -5 -9 -9 -20 -9 -19 0
-26 11 -14 23 8 8 34 -3 34 -14z m190 17 c0 -3 -4 -8 -10 -11 -5 -3 -10 -1
-10 4 0 6 5 11 10 11 6 0 10 -2 10 -4z m45 -36 c3 -5 1 -10 -4 -10 -6 0 -11 5
-11 10 0 6 2 10 4 10 3 0 8 -4 11 -10z m-200 -40 c1 -10 -2 -17 -7 -14 -4 3
-8 15 -8 26 0 26 13 15 15 -12z m-90 -9 c-6 -5 -25 10 -25 20 0 5 6 4 14 -3 8
-7 12 -15 11 -17z m145 9 c0 -19 -1 -19 -20 -3 -11 10 -20 19 -20 20 0 2 9 3
20 3 13 0 20 -7 20 -20z m77 -12 c-3 -8 -6 -5 -6 6 -1 11 2 17 5 13 3 -3 4
-12 1 -19z m-111 -115 c-10 -10 -19 5 -10 18 6 11 8 11 12 0 2 -7 1 -15 -2
-18z m114 -43 c0 -5 -4 -10 -10 -10 -5 0 -10 5 -10 10 0 6 5 10 10 10 6 0 10
-4 10 -10z m120 -20 c0 -11 -7 -20 -15 -20 -15 0 -21 21 -8 33 12 13 23 7 23
-13z m-243 -12 c-3 -8 -6 -5 -6 6 -1 11 2 17 5 13 3 -3 4 -12 1 -19z m33 -4
c0 -8 -4 -12 -10 -9 -5 3 -10 10 -10 16 0 5 5 9 10 9 6 0 10 -7 10 -16z m48
-5 c12 -18 11 -21 -7 -26 -12 -3 -21 -9 -21 -14 0 -15 -28 -10 -34 7 -4 12 -1
14 14 9 16 -5 20 -2 20 19 0 31 11 33 28 5z m122 -5 c0 -8 -4 -12 -10 -9 -5 3
-10 10 -10 16 0 5 5 9 10 9 6 0 10 -7 10 -16z m-64 -19 c-3 -8 -1 -15 4 -15 6
0 10 -7 10 -15 0 -18 -27 -20 -33 -2 -6 17 4 47 15 47 6 0 8 -7 4 -15z m-1986
-45 c3 -1 -3 -5 -14 -9 -15 -6 -9 -11 30 -26 27 -10 53 -23 57 -29 6 -8 10 -7
14 2 7 17 33 -3 34 -27 1 -9 4 -5 9 9 l8 25 7 -22 c10 -33 27 -28 19 5 l-7 27
19 -23 c17 -19 23 -21 52 -13 27 8 33 7 29 -3 -6 -14 47 -31 63 -21 4 3 11 -2
14 -11 4 -9 13 -14 21 -10 9 3 32 -10 57 -34 23 -21 46 -36 51 -33 10 6 48
-27 42 -37 -4 -7 27 -11 89 -11 14 0 16 -3 7 -12 -18 -18 -13 -27 19 -27 20 0
30 -5 30 -15 0 -8 5 -15 10 -15 6 0 10 -11 10 -25 0 -27 23 -34 37 -12 10 18
63 31 63 17 0 -6 -4 -9 -9 -5 -14 8 -22 -11 -14 -33 8 -19 9 -19 29 -3 11 9
23 23 27 31 3 10 6 7 6 -7 1 -13 -3 -23 -9 -23 -15 0 -12 -36 4 -49 10 -8 16
-9 21 -1 3 6 11 8 16 5 5 -4 9 -1 9 4 0 15 19 14 36 -3 16 -17 19 -30 4 -21
-11 7 -30 -36 -29 -63 0 -10 7 -4 16 16 17 33 33 42 33 18 0 -7 7 -19 15 -26
25 -21 17 -34 -10 -16 -21 14 -25 14 -25 2 0 -8 -8 -17 -17 -20 -10 -2 0 -4
22 -3 35 2 40 -1 43 -20 2 -13 10 -23 18 -23 8 0 14 -9 14 -19 0 -11 6 -22 13
-24 7 -3 6 -6 -5 -6 -9 -1 -20 4 -23 9 -9 14 -35 13 -35 -2 0 -6 3 -8 7 -5 12
13 54 -57 48 -80 -4 -16 -1 -23 9 -23 9 0 13 -9 12 -25 0 -14 -7 -25 -13 -25
-7 0 -13 -7 -13 -15 0 -8 7 -15 15 -15 8 0 15 -4 15 -10 0 -5 -4 -10 -10 -10
-5 0 -10 -4 -10 -10 0 -5 6 -10 14 -10 7 0 16 -10 19 -22 3 -13 9 -34 13 -47
6 -19 4 -23 -7 -17 -8 4 -6 1 4 -7 12 -10 14 -16 6 -19 -24 -8 -19 -51 12
-107 17 -31 38 -59 45 -64 7 -4 11 -14 8 -22 -5 -11 2 -15 24 -15 25 0 29 -3
25 -20 -4 -15 0 -20 16 -20 11 0 21 -4 21 -8 0 -5 11 -15 25 -22 14 -8 28 -24
31 -37 4 -13 10 -23 15 -23 5 0 9 -9 9 -19 0 -11 7 -26 15 -35 8 -8 15 -21 15
-29 0 -9 5 -17 11 -19 7 -2 12 -23 12 -46 0 -23 4 -45 8 -48 5 -3 9 -16 9 -29
0 -13 6 -26 13 -29 10 -5 10 -7 0 -12 -16 -7 -17 -31 -3 -36 6 -2 12 -39 14
-83 3 -44 9 -100 14 -125 29 -127 40 -245 48 -480 2 -69 5 -154 7 -190 1 -36
0 -84 -4 -108 -3 -23 -2 -45 3 -48 15 -9 40 66 54 165 8 52 18 99 22 105 5 6
10 45 11 85 2 41 7 86 12 99 5 13 9 36 9 51 0 15 4 31 9 37 6 5 15 52 20 104
13 114 15 127 24 136 4 4 7 16 7 27 0 10 8 31 19 45 10 15 21 41 24 57 9 48
31 120 39 125 13 10 46 125 53 182 3 32 11 60 16 64 6 3 8 12 5 19 -3 8 2 19
10 26 8 7 13 18 10 25 -2 6 1 32 8 56 8 24 14 61 14 83 0 22 5 52 11 67 8 21
7 27 -6 32 -13 5 -14 9 -5 18 16 16 16 41 0 32 -8 -5 -9 -2 -5 9 3 9 -1 29 -9
44 -9 19 -12 41 -8 67 5 33 4 38 -10 33 -9 -4 -16 -2 -16 3 0 6 6 10 13 10 8
0 9 3 1 8 -6 4 -14 21 -18 37 -5 23 -4 27 4 15 9 -11 13 -12 17 -2 2 6 11 12
19 12 17 0 32 52 16 58 -9 3 -9 9 -1 23 5 11 15 17 21 13 7 -4 8 4 4 24 -6 24
-3 33 16 48 13 11 27 27 31 37 3 9 11 17 17 17 6 0 8 4 5 10 -3 5 0 7 8 4 7
-2 13 -14 13 -26 -1 -17 5 -21 44 -22 53 -3 93 12 86 31 -3 7 -1 13 4 13 6 0
10 7 10 15 0 8 -9 15 -20 15 -17 0 -19 -5 -14 -25 5 -21 3 -25 -15 -25 -12 0
-21 6 -21 13 0 6 -5 4 -11 -6 -16 -27 -39 -3 -39 39 0 38 30 63 48 41 6 -7 32
-14 58 -15 26 -1 48 -3 50 -5 8 -8 -10 -47 -22 -47 -19 0 -18 -16 2 -24 26
-10 32 -7 38 19 7 29 27 32 47 9 11 -14 10 -16 -11 -12 -20 2 -25 -1 -24 -19
0 -18 -5 -23 -25 -23 -41 0 -11 -18 39 -24 25 -2 46 -5 48 -5 1 -1 2 -11 2
-23 0 -16 -3 -19 -8 -10 -5 7 -16 10 -25 6 -15 -5 -15 -8 -1 -21 16 -17 13
-40 -5 -35 -7 1 -11 -13 -11 -38 0 -31 3 -38 15 -34 14 6 35 -29 35 -57 0 -19
-28 -8 -34 13 -4 17 -8 20 -16 12 -18 -18 9 -53 38 -50 29 3 43 24 36 53 -6
21 -3 22 23 17 25 -5 31 -1 48 32 11 20 26 39 34 42 10 3 9 -4 -5 -27 -10 -17
-22 -31 -25 -31 -16 0 -19 -38 -5 -65 8 -15 13 -45 11 -65 -3 -31 0 -39 16
-43 20 -5 27 9 8 15 -6 2 -9 13 -7 23 3 17 6 15 18 -12 11 -25 22 -33 52 -38
46 -8 64 -27 43 -45 -12 -10 -13 -16 -4 -27 7 -7 9 -16 5 -20 -3 -3 -6 -1 -6
5 0 6 -9 10 -19 9 -15 -1 -17 -6 -11 -22 18 -49 21 -76 8 -74 -7 1 -22 -2 -32
-6 -14 -6 -23 -3 -32 10 -12 16 -14 16 -14 3 0 -18 34 -33 50 -23 17 10 11 -7
-6 -20 -15 -11 -15 -12 4 -17 14 -4 19 -2 15 7 -2 8 4 18 15 24 21 11 52 5 52
-10 0 -5 12 -9 26 -9 21 0 24 -4 20 -20 -3 -11 -9 -29 -12 -41 -5 -18 -4 -19
15 -7 12 7 21 16 21 20 0 14 31 8 36 -7 3 -8 14 -17 25 -20 26 -8 14 -25 -17
-25 -17 0 -24 -5 -24 -20 0 -11 7 -20 15 -20 8 0 15 7 15 15 0 8 4 15 8 15 11
0 32 -41 30 -60 -3 -39 3 -60 18 -60 12 0 15 -6 11 -21 -3 -13 -1 -19 6 -16 7
2 12 9 11 15 -1 7 -2 26 -2 43 -2 28 -4 30 -18 18 -14 -11 -16 -11 -13 4 5 24
22 24 34 0 10 -20 11 -20 23 6 11 23 10 28 -10 43 -13 10 -26 18 -30 18 -13 0
-9 -18 5 -23 7 -3 5 -6 -6 -6 -29 -2 -33 30 -6 51 18 15 24 17 28 6 2 -7 12
-19 23 -26 10 -7 18 -20 18 -29 0 -9 8 -21 17 -28 15 -11 16 -15 3 -30 -14
-17 -15 -16 -22 6 -6 17 -7 14 -4 -13 3 -20 0 -38 -6 -40 -6 -2 -3 -10 6 -17
14 -12 16 -12 10 4 -6 15 -3 17 19 11 24 -6 25 -4 22 24 -4 33 11 49 28 30 9
-10 9 -14 0 -17 -8 -3 -9 -13 -3 -35 5 -16 9 -33 8 -37 -2 -20 4 -31 17 -31 8
0 15 -4 15 -10 0 -15 -63 -12 -86 5 -12 8 -24 12 -27 9 -11 -11 45 -84 64 -84
10 0 21 -4 24 -10 4 -6 -10 -10 -34 -10 -33 0 -39 -3 -34 -16 5 -13 7 -13 14
-2 7 11 11 10 19 -2 13 -20 13 -30 -1 -30 -7 0 -9 -10 -7 -24 4 -19 0 -25 -19
-29 -13 -2 -26 0 -29 5 -3 4 -10 6 -15 2 -13 -8 21 -33 37 -27 7 2 15 -1 19
-7 4 -7 -2 -14 -14 -17 -11 -3 -18 -9 -15 -14 8 -13 44 -11 44 3 0 6 2 9 5 6
10 -9 -20 -58 -35 -56 -20 4 -46 -23 -54 -56 -3 -14 -11 -26 -16 -26 -6 0 -10
-4 -10 -9 0 -5 9 -7 20 -4 13 3 20 0 20 -8 0 -11 2 -11 9 0 6 9 6 22 1 31 -6
11 -5 21 2 28 21 21 31 13 25 -17 -5 -21 -2 -31 8 -33 25 -5 -22 -68 -51 -68
-13 0 -24 -4 -24 -10 0 -5 6 -9 13 -7 6 1 11 -6 9 -15 -2 -11 3 -18 13 -18 8
0 15 3 15 8 0 4 11 12 25 19 22 10 25 9 25 -8 0 -10 -4 -19 -10 -19 -20 0 -9
-21 18 -32 25 -11 25 -12 6 -15 -25 -5 -65 -43 -45 -43 22 0 79 -31 85 -46 4
-12 2 -12 -14 -4 -11 6 -20 15 -20 20 0 6 -6 10 -14 10 -17 0 -41 -28 -32 -37
4 -4 11 -1 16 7 7 12 12 11 28 -8 11 -12 23 -22 28 -22 5 0 15 -9 21 -19 10
-16 9 -20 -8 -24 -14 -4 -19 0 -19 14 0 10 -6 19 -14 19 -8 0 -16 5 -18 11 -6
19 -48 0 -48 -22 0 -10 5 -19 10 -19 6 0 10 5 10 10 0 23 36 8 47 -20 14 -38
-7 -48 -23 -11 -10 22 -12 23 -12 6 0 -11 -3 -31 -6 -45 -4 -14 -3 -19 0 -11
5 11 8 11 14 0 6 -9 17 -2 42 24 27 28 37 34 46 25 15 -15 16 -38 2 -38 -5 0
-10 7 -10 17 0 13 -4 11 -20 -7 -11 -13 -20 -27 -20 -32 0 -4 -7 -8 -15 -8 -8
0 -15 -9 -15 -19 0 -27 17 -35 23 -11 3 11 10 20 16 20 20 0 11 -45 -14 -68
-27 -26 -24 -49 11 -62 16 -6 22 -15 18 -25 -4 -8 0 -22 7 -31 11 -13 10 -15
-6 -12 -26 5 -29 -15 -3 -27 12 -6 23 -17 25 -25 4 -13 2 -12 -9 1 -7 9 -19
14 -25 12 -7 -3 -13 0 -13 6 0 20 -26 11 -27 -9 -1 -11 4 -20 12 -20 9 0 15
-14 18 -37 3 -33 5 -35 12 -15 4 12 14 22 22 22 11 0 10 -7 -6 -29 -12 -16
-18 -36 -15 -44 3 -8 -5 -24 -17 -36 -27 -25 -54 -28 -45 -5 4 9 1 23 -5 30
-9 11 -8 14 4 14 8 0 18 -7 21 -16 3 -8 10 -12 16 -9 15 9 12 42 -4 48 -8 3
-12 15 -9 30 3 14 0 28 -6 31 -13 8 -26 -38 -16 -55 5 -8 1 -9 -12 -5 -24 8
-73 -9 -73 -25 0 -6 7 -8 17 -5 15 6 32 -8 33 -27 0 -5 -15 -7 -32 -5 -26 2
-32 0 -30 -14 1 -9 -5 -19 -15 -21 -10 -3 -1 -5 20 -6 21 0 36 3 32 8 -3 5 -1
12 4 16 6 3 15 -4 21 -15 6 -11 19 -20 30 -20 10 0 22 -5 25 -10 4 -7 -2 -9
-19 -4 -24 6 -26 4 -26 -31 0 -29 -3 -36 -15 -31 -11 4 -14 -1 -11 -17 2 -15
11 -23 29 -25 32 -4 32 -3 8 -43 -19 -31 -19 -31 1 -51 10 -10 17 -25 15 -31
-5 -13 -40 -10 -45 4 -8 21 -33 7 -38 -21 -5 -20 -12 -30 -25 -30 -10 0 -21
-4 -24 -10 -4 -6 5 -10 19 -10 14 0 26 -4 26 -10 0 -5 4 -10 8 -10 4 0 8 16 9
36 1 40 7 49 23 39 7 -4 9 -19 5 -36 -4 -18 -3 -29 4 -29 15 0 14 -27 -1 -32
-9 -3 -8 -12 6 -32 9 -15 15 -30 12 -34 -3 -3 -6 0 -6 7 0 7 -9 9 -25 5 -15
-4 -25 -2 -25 5 0 6 7 11 16 11 13 0 14 3 5 13 -6 8 -8 17 -4 20 3 4 -1 7 -10
7 -10 0 -17 -6 -17 -14 0 -8 -11 -17 -25 -20 -26 -7 -35 -26 -11 -26 21 0 28
-31 11 -50 -12 -13 -12 -19 -2 -29 10 -11 8 -12 -10 -7 -13 4 -35 -1 -58 -14
-30 -17 -36 -18 -32 -6 4 9 2 16 -3 16 -6 0 -10 -4 -10 -10 0 -5 -10 -10 -23
-10 -13 0 -38 -11 -57 -25 -20 -15 -47 -25 -67 -25 -18 0 -33 -4 -33 -8 0 -9
-15 -12 -57 -13 -13 -1 -23 -6 -23 -11 0 -7 -5 -6 -14 1 -11 9 -15 8 -20 -5
-4 -10 -12 -14 -22 -10 -10 4 -18 0 -21 -12 -3 -13 -15 -19 -41 -20 -20 -2
-47 -9 -59 -17 -12 -8 -30 -15 -40 -15 -10 0 -35 -9 -56 -20 -20 -11 -44 -20
-52 -20 -8 0 -15 -4 -15 -10 0 -11 -68 -4 -84 9 -6 4 -23 11 -37 14 -14 4 -47
17 -75 29 -27 12 -57 23 -67 24 -16 1 -37 9 -87 34 -45 22 -200 80 -213 80
-18 0 -33 -23 -38 -57 -5 -25 45 -63 107 -83 22 -6 54 -19 73 -27 19 -9 77
-22 129 -30 52 -7 121 -25 155 -38 33 -14 92 -31 131 -40 107 -22 177 -45 171
-55 -8 -14 -211 -12 -260 1 -34 10 -95 13 -335 19 -14 0 -86 -2 -160 -6 l-135
-6 -51 -54 c-29 -29 -54 -57 -55 -61 -6 -14 -171 -148 -214 -173 -22 -13 -44
-30 -48 -37 -4 -7 -15 -13 -22 -13 -8 0 -15 -3 -15 -8 0 -4 -17 -16 -37 -27
-21 -11 -60 -34 -88 -52 -27 -18 -58 -33 -68 -33 -10 0 -20 -7 -24 -16 -3 -10
-13 -14 -25 -10 -14 3 -22 -1 -25 -15 -4 -13 -11 -18 -23 -14 -13 4 -23 -4
-37 -31 -14 -28 -26 -38 -48 -40 -15 -2 -31 -7 -34 -12 -3 -5 -21 -17 -38 -26
-18 -9 -33 -23 -33 -31 0 -8 -5 -15 -12 -15 -6 0 -26 -11 -43 -25 -18 -13 -35
-21 -39 -18 -3 4 -6 2 -6 -3 0 -14 -58 -46 -70 -39 -5 3 -21 -5 -35 -19 -19
-19 -36 -26 -67 -26 -33 0 -39 -3 -34 -16 5 -13 1 -15 -21 -11 -14 3 -43 -1
-62 -8 -34 -11 -109 -11 -140 0 -10 4 -12 -1 -6 -22 6 -26 5 -27 -11 -11 -13
13 -20 14 -36 5 -15 -10 -21 -9 -28 3 -8 12 -12 13 -19 1 -7 -10 -13 -11 -30
-2 -17 10 -22 9 -27 -4 -8 -19 -24 -20 -24 0 0 8 -4 15 -10 15 -5 0 -10 -4
-10 -10 0 -5 -9 -10 -20 -10 -11 0 -20 4 -20 9 0 14 -38 20 -44 7 -2 -6 -8 -1
-11 12 -6 16 -15 22 -37 22 -16 0 -41 9 -55 20 -14 11 -32 20 -40 20 -9 0 -13
6 -10 15 8 18 -13 32 -23 15 -10 -16 -48 20 -42 40 3 9 -2 11 -23 6 -22 -6
-26 -4 -22 8 5 11 0 16 -16 17 -21 1 -20 1 3 8 25 7 24 8 -7 15 -18 4 -33 12
-33 16 0 5 -7 7 -15 4 -8 -4 -15 -1 -15 6 0 7 -16 28 -35 47 -19 19 -35 40
-35 48 0 8 -9 30 -21 49 -12 20 -18 36 -13 36 4 0 0 8 -8 18 -8 9 -15 27 -16
40 -1 17 5 22 24 22 13 0 24 5 24 10 0 6 -4 10 -10 10 -5 0 -10 4 -10 9 0 6
19 11 43 13 37 3 42 6 40 26 -2 12 2 22 7 22 6 0 10 -5 10 -12 0 -18 14 0 17
24 2 12 9 25 15 29 16 10 -9 40 -27 33 -15 -6 -20 0 -29 39 -5 23 -3 27 15 27
17 0 19 -3 10 -14 -9 -11 -9 -16 0 -21 12 -8 31 14 23 27 -3 4 0 8 5 8 6 0 11
-7 11 -15 0 -8 5 -15 10 -15 6 0 10 7 10 15 0 8 7 15 16 15 11 0 15 -6 11 -19
-4 -17 -2 -18 20 -10 17 6 30 6 38 -1 7 -6 37 -13 66 -16 43 -4 49 -2 30 6
-17 7 -22 16 -18 31 4 13 0 22 -11 26 -25 10 -31 23 -25 58 6 35 -11 55 -30
36 -16 -16 -27 -13 -27 8 0 21 -53 71 -75 71 -8 0 -17 -5 -20 -10 -5 -8 -11
-7 -21 1 -7 6 -12 14 -9 18 2 4 -12 13 -31 20 -45 16 -33 33 19 26 123 -16
224 -21 234 -12 13 14 -12 27 -54 27 -36 0 -50 5 -71 28 -26 27 -28 28 -55 13
-26 -15 -29 -15 -42 3 -8 10 -17 39 -21 64 -6 37 -4 48 12 59 24 18 71 17 82
-3 8 -14 10 -14 21 0 17 20 77 20 111 1 36 -20 170 -20 170 0 0 8 5 15 10 15
6 0 10 -9 10 -20 0 -15 7 -20 28 -20 41 0 45 9 14 35 -50 41 -69 47 -101 31
-15 -8 -31 -12 -35 -9 -12 13 -5 31 14 36 12 3 20 14 20 25 0 15 15 28 58 48
31 15 59 29 62 33 3 3 22 15 43 25 39 20 52 52 18 43 -11 -3 -22 1 -25 8 -3 9
-16 10 -48 5 -23 -5 -46 -6 -50 -4 -5 3 -8 -1 -8 -8 -1 -33 -29 29 -36 78 -3
30 -15 63 -25 75 -11 12 -19 28 -19 36 0 7 -4 13 -9 13 -5 0 -13 10 -16 23 -4
12 -21 35 -38 51 -29 25 -37 28 -80 22 -48 -5 -49 -5 -43 19 4 14 2 25 -3 25
-5 0 -11 -23 -13 -50 -3 -51 4 -63 20 -33 10 18 12 15 26 -49 5 -24 4 -26 -18
-22 -13 2 -39 18 -57 35 -26 25 -30 32 -18 40 11 7 9 9 -9 9 -16 0 -21 -4 -16
-12 5 -9 2 -9 -9 1 -9 7 -17 20 -17 28 0 7 -7 16 -16 20 -9 3 -13 12 -9 21 3
8 0 19 -7 24 -10 6 -8 12 8 26 11 10 19 23 16 30 -2 6 3 15 12 18 17 6 23 26
7 22 -5 -2 -11 1 -12 6 -2 5 12 14 30 21 22 7 30 14 23 19 -13 8 1 40 28 64
13 12 13 13 -2 8 -13 -4 -20 2 -24 19 -3 14 -10 25 -14 25 -14 0 -21 -33 -9
-41 18 -11 1 -28 -36 -35 -21 -4 -35 -12 -35 -20 0 -8 -6 -17 -13 -20 -8 -3
-14 -22 -15 -46 -1 -23 -7 -45 -13 -49 -7 -4 -9 -19 -6 -39 5 -20 2 -39 -8
-54 -8 -12 -12 -26 -8 -29 3 -4 -12 -7 -35 -7 -38 0 -42 -2 -42 -25 0 -15 6
-25 14 -25 8 0 18 -9 21 -20 8 -24 -3 -100 -16 -116 -17 -21 -22 -101 -8 -132
11 -25 16 -29 32 -20 32 17 160 -1 193 -27 25 -20 27 -25 18 -56 l-10 -34 -69
-2 c-39 0 -79 -2 -90 -3 -11 -2 -38 -2 -60 -1 -32 2 -36 4 -20 11 11 5 14 9 8
9 -7 1 -13 8 -13 16 0 9 -6 15 -12 14 -30 -4 -40 1 -30 14 8 10 10 89 2 107
-1 3 -2 8 -1 12 0 4 -13 2 -29 -4 -26 -8 -30 -15 -30 -45 0 -29 3 -34 18 -31
12 4 17 -1 17 -19 0 -12 -3 -23 -7 -23 -4 0 -25 -19 -47 -42 -29 -32 -37 -46
-29 -55 7 -9 7 -13 -2 -13 -9 0 -11 -10 -6 -30 3 -17 3 -51 -1 -75 -5 -37 -9
-45 -27 -45 -16 0 -17 -3 -7 -9 8 -5 11 -16 7 -29 -4 -11 -2 -23 4 -27 5 -3
10 -19 10 -34 0 -35 19 -52 48 -44 28 7 29 39 1 53 -12 7 -18 18 -15 26 3 8
-1 14 -9 14 -22 0 -18 27 5 33 16 4 20 0 20 -19 0 -13 6 -24 13 -24 14 0 45
-29 46 -42 1 -5 1 -17 1 -27 0 -11 7 -27 16 -35 8 -9 13 -20 9 -26 -3 -5 3
-30 15 -54 11 -25 20 -51 19 -58 0 -7 -4 -3 -9 9 -5 13 -18 23 -29 23 -20 0
-30 18 -36 72 -5 37 -12 45 -26 31 -6 -6 -18 -9 -25 -6 -15 5 -44 -13 -44 -28
0 -4 16 -5 35 -2 23 4 35 2 35 -6 0 -6 -9 -11 -19 -11 -13 0 -21 -8 -23 -22
-2 -18 -10 -23 -33 -24 -46 -2 -48 -3 -35 -19 7 -8 16 -12 21 -9 5 3 9 0 9 -5
0 -6 -12 -11 -27 -10 -36 0 -84 56 -62 70 8 5 24 7 37 4 15 -4 22 -1 22 9 0 8
6 16 13 19 7 2 8 8 3 13 -5 5 -11 4 -13 -3 -3 -7 -20 -13 -38 -13 -35 0 -53
14 -35 25 6 4 7 11 4 17 -4 6 -10 5 -16 -3 -8 -11 -11 -12 -15 -1 -3 7 -14 22
-26 33 -18 16 -18 19 -4 19 9 0 17 5 17 10 0 6 -19 11 -42 11 -24 1 -35 3 -25
6 9 2 17 7 17 10 0 9 -32 32 -58 43 -17 7 -22 18 -22 45 0 19 -4 35 -10 35 -5
0 -10 13 -10 29 0 17 -6 31 -16 35 -17 6 -11 44 10 59 6 5 -1 7 -17 4 -18 -3
-26 0 -24 7 2 6 20 11 40 10 21 0 37 2 37 4 0 3 -14 18 -31 34 -17 16 -35 43
-41 59 -5 16 -14 29 -19 29 -5 0 -9 11 -9 25 0 19 -5 25 -21 25 -15 0 -19 5
-15 15 3 9 0 15 -8 15 -21 0 -41 47 -27 64 9 11 6 16 -19 24 -30 11 -34 18
-31 58 2 26 -44 40 -53 17 -3 -8 -10 -12 -15 -8 -6 3 -8 12 -5 19 3 8 1 17 -5
21 -6 3 -11 14 -11 24 0 10 -6 24 -14 30 -11 9 -12 20 -5 43 8 29 7 30 -10 14
-30 -27 -58 -19 -52 16 0 4 -7 5 -17 1 -14 -5 -15 -3 -4 8 19 21 14 32 -13 25
-20 -5 -25 -3 -25 14 0 11 5 20 10 20 15 0 12 26 -5 40 -11 9 -12 17 -5 30 14
26 12 40 -5 40 -8 0 -15 5 -15 10 0 6 7 10 15 10 8 0 15 9 15 20 0 13 -5 18
-15 14 -9 -4 -15 0 -15 10 0 9 -7 16 -15 16 -22 0 -18 18 5 25 12 4 17 11 13
18 -4 6 -8 18 -10 27 -1 8 -5 27 -9 43 -5 24 -3 27 17 27 35 0 10 18 -31 23
-30 3 -28 4 13 5 46 2 69 22 25 22 -13 0 -32 7 -43 16 -18 14 -17 14 20 10 22
-3 32 -2 23 0 -14 4 -18 15 -17 47 1 23 3 34 6 25 8 -31 21 -19 20 17 -1 41
-1 41 41 50 29 6 32 4 32 -17 0 -13 4 -18 8 -13 6 9 25 10 125 6 25 -1 41 -21
16 -21 -6 0 -17 -7 -25 -15 -14 -13 -13 -15 6 -15 12 0 18 5 15 10 -3 6 3 10
14 10 12 0 20 -5 19 -12 -2 -7 2 -12 7 -13 39 -3 65 -17 65 -36 0 -11 5 -17
10 -14 6 4 8 11 5 16 -9 14 69 11 83 -3 9 -9 12 -9 12 0 0 7 16 11 43 11 82
-1 148 6 155 17 4 6 16 11 27 11 26 1 117 28 140 41 20 11 -127 9 -175 -2 -32
-8 -95 39 -67 50 9 3 14 11 10 17 -6 9 23 6 59 -8 8 -3 26 5 40 18 27 25 55
27 70 5 7 -9 8 -7 5 9 -4 16 8 37 42 75 25 30 53 65 62 78 15 24 17 24 42 7
26 -17 46 -75 32 -96 -7 -13 -17 -12 123 -14 67 -1 116 -6 120 -13 4 -6 15
-13 25 -17 9 -4 21 -17 27 -31 5 -13 13 -27 18 -30 14 -8 52 5 52 19 0 7 7 18
15 25 8 7 14 24 13 39 -1 14 8 46 20 70 12 24 19 48 16 53 -3 5 2 15 12 23 18
13 18 14 0 34 -11 12 -25 21 -33 21 -7 0 -16 7 -19 15 -4 8 -10 12 -15 9 -5
-3 -9 2 -9 10 0 8 -8 17 -17 19 -14 4 -12 5 5 6 38 2 24 16 -18 18 -22 0 -40
-3 -40 -8 0 -5 -4 -9 -9 -9 -5 0 -7 8 -4 19 4 16 -1 18 -37 18 -45 0 -59 13
-55 48 2 20 -2 22 -34 18 -20 -2 -43 1 -51 6 -13 9 -12 12 5 26 19 16 19 16
-9 12 -21 -4 -30 0 -33 13 -6 23 -89 46 -107 30 -7 -5 -15 -7 -18 -5 -11 12
-136 28 -195 26 -34 -1 -71 3 -83 9 -16 9 -25 8 -36 -1 -10 -8 -14 -8 -14 0 0
15 -37 14 -42 -1 -3 -9 -10 -7 -23 6 -18 18 -19 18 -26 0 -6 -17 -8 -17 -17 6
-8 18 -11 20 -11 8 -1 -31 -21 -19 -21 12 0 17 -4 30 -10 30 -5 0 -10 9 -10
20 0 13 -7 20 -20 20 -11 0 -20 -7 -20 -15 0 -18 -8 -19 -43 -2 -29 13 -37 37
-12 37 8 0 15 -7 15 -15 0 -8 6 -15 14 -15 19 0 15 32 -7 48 -25 19 -10 35 25
28 25 -5 29 -4 19 8 -9 10 -9 16 -1 21 6 4 14 4 17 1 9 -9 35 46 29 61 -3 7
-12 10 -20 7 -8 -3 -17 -1 -21 5 -3 6 1 11 9 11 8 0 20 8 26 18 8 12 13 13 16
5 7 -15 34 -18 34 -4 0 6 -4 12 -9 16 -9 5 -4 31 16 85 4 9 10 0 18 -25 l12
-40 7 43 c8 43 -6 78 -25 66 -16 -9 -10 5 10 25 20 20 106 32 128 18 7 -4 14
-3 18 3 3 5 1 10 -4 10 -6 0 -11 7 -11 15 0 18 -17 20 -23 3 -2 -7 -8 -9 -13
-5 -11 10 7 39 33 52 11 6 18 16 15 24 -3 10 0 12 12 8 17 -7 56 11 56 25 0 5
-7 8 -15 8 -8 0 -15 5 -15 10 0 6 8 10 19 10 23 0 23 28 -1 54 -23 25 -23 36
1 36 13 0 21 -8 23 -22 2 -13 8 -21 13 -18 6 3 9 15 7 28 -2 18 2 23 15 22 37
-4 63 0 63 11 0 6 -9 13 -20 16 -23 6 -28 33 -6 33 16 0 29 27 16 35 -5 3 -11
1 -15 -4 -3 -6 -12 -8 -20 -4 -10 3 -15 -1 -15 -12 0 -12 -5 -15 -17 -10 -10
4 -26 10 -35 12 -22 7 -24 23 -2 23 9 0 27 8 40 19 l24 19 -22 5 c-20 6 -21 8
-6 24 26 31 30 53 8 53 -13 0 -20 -7 -20 -20 0 -11 -5 -20 -11 -20 -19 0 -5
45 15 48 19 4 55 39 56 55 0 4 -8 7 -17 7 -14 0 -15 2 -4 9 9 6 10 11 3 15 -6
4 -9 13 -6 21 4 10 -5 16 -30 21 -20 3 -39 11 -43 17 -4 6 4 8 21 5 14 -3 29
-2 31 2 3 5 14 6 25 3 16 -4 19 -2 14 11 -3 9 -17 16 -32 16 -18 0 -23 3 -15
11 11 11 63 2 63 -12 0 -5 6 -9 14 -9 9 0 12 7 9 20 -3 12 -12 19 -22 18 -11
-2 -17 6 -19 30 -2 18 1 32 7 32 6 0 11 -4 11 -9 0 -5 11 -11 25 -13 27 -6 43
8 67 56 15 28 16 28 22 9 5 -14 14 -20 31 -19 30 1 34 16 5 16 -11 0 -20 6
-20 14 0 21 21 31 32 15 7 -10 8 -1 4 26 -7 53 15 67 104 69 36 1 72 4 80 7 9
2 14 -2 12 -10 -3 -12 0 -12 12 -2 10 8 16 9 21 1 9 -15 52 -12 58 4 5 11 19
13 64 9 120 -11 148 -9 147 8 -1 13 10 16 60 15 60 -2 71 2 104 37 9 9 21 17
27 17 6 0 15 8 22 19 14 22 63 17 63 -6 0 -13 3 -13 15 -3 13 10 15 9 15 -9 0
-21 10 -27 23 -14 4 3 2 12 -4 20 -9 10 -8 13 5 13 9 0 16 -7 16 -15 0 -16 12
-20 23 -8 4 3 2 12 -4 20 -9 10 -7 13 10 13 25 0 28 17 4 23 -10 3 -4 5 14 6
17 0 34 5 38 10 4 8 45 9 65 1z m1928 -35 c-2 -11 -9 -20 -17 -20 -8 0 -15 9
-17 20 -2 15 2 21 17 21 14 0 19 -6 17 -21z m100 -17 c16 -16 15 -28 -3 -28
-8 0 -19 9 -25 20 -8 15 -8 20 3 20 7 0 18 -5 25 -12z m82 -42 c0 -13 -10 -30
-22 -39 l-23 -16 23 0 c12 -1 22 -6 22 -12 0 -7 -13 -9 -37 -5 l-38 6 44 -21
c31 -15 40 -24 32 -32 -8 -8 -16 -6 -29 6 -10 9 -28 17 -40 17 -19 0 -22 5
-22 45 0 37 3 45 19 45 10 0 22 -7 25 -16 9 -24 38 3 31 27 -4 11 -2 19 4 19
6 0 11 -11 11 -24z m-160 -17 c0 -6 -7 -6 -20 1 -11 6 -20 15 -20 21 0 6 7 6
20 -1 11 -6 20 -15 20 -21z m-2848 -21 c-9 -9 -15 -9 -24 0 -9 9 -7 12 12 12
19 0 21 -3 12 -12z m2832 -13 c3 -9 0 -15 -8 -15 -8 0 -16 -5 -18 -12 -3 -8
-11 -9 -24 -3 -18 8 -18 9 4 12 12 3 22 11 22 19 0 19 16 18 24 -1z m46 11 c0
-3 -4 -8 -10 -11 -5 -3 -10 -1 -10 4 0 6 5 11 10 11 6 0 10 -2 10 -4z m160 0
c0 -3 -4 -8 -10 -11 -5 -3 -10 -1 -10 4 0 6 5 11 10 11 6 0 10 -2 10 -4z
m-188 -54 c5 -16 -19 -42 -37 -42 -10 0 -5 36 7 48 17 17 25 15 30 -6z m58
-54 c0 -21 -3 -29 -10 -22 -5 5 -7 19 -4 32 9 31 14 27 14 -10z m130 2 c0 -5
-4 -10 -10 -10 -5 0 -10 5 -10 10 0 6 5 10 10 10 6 0 10 -4 10 -10z m67 4 c-3
-3 -12 -4 -19 -1 -8 3 -5 6 6 6 11 1 17 -2 13 -5z m-3287 -19 c0 -8 -4 -15
-10 -15 -5 0 -10 7 -10 15 0 8 5 15 10 15 6 0 10 -7 10 -15z m3045 5 c3 -5 -1
-10 -9 -10 -8 0 -18 5 -21 10 -3 6 1 10 9 10 8 0 18 -4 21 -10z m-3090 -40
c-3 -5 -13 -10 -21 -10 -8 0 -14 5 -14 10 0 6 9 10 21 10 11 0 17 -4 14 -10z
m1855 1 c0 -17 -18 -21 -24 -6 -3 9 0 15 9 15 8 0 15 -4 15 -9z m1270 -1 c0
-5 -8 -10 -17 -10 -15 0 -16 2 -3 10 19 12 20 12 20 0z m54 1 c3 -5 -1 -14 -9
-21 -13 -10 -15 -9 -15 9 0 21 14 28 24 12z m-33 -55 c19 -3 41 -1 48 4 8 5
21 0 33 -12 11 -11 18 -20 16 -21 -1 -1 -13 -8 -25 -14 -19 -11 -24 -10 -35 6
-8 11 -28 20 -48 22 -19 2 -41 7 -48 13 -8 6 -17 5 -24 -2 -15 -15 -38 3 -38
30 0 14 5 18 15 15 8 -4 17 -1 21 5 5 7 15 2 28 -15 14 -17 34 -28 57 -31z
m-1061 18 c0 -2 -7 -4 -15 -4 -8 0 -15 4 -15 10 0 5 7 7 15 4 8 -4 15 -8 15
-10z m1190 7 c0 -6 -4 -13 -10 -16 -5 -3 -10 1 -10 9 0 9 5 16 10 16 6 0 10
-4 10 -9z m-3345 -21 c3 -5 -3 -10 -14 -10 -12 0 -21 5 -21 10 0 6 6 10 14 10
8 0 18 -4 21 -10z m3392 -6 c-3 -3 -12 -4 -19 -1 -8 3 -5 6 6 6 11 1 17 -2 13
-5z m93 2 c0 -2 -8 -10 -17 -17 -16 -13 -17 -12 -4 4 13 16 21 21 21 13z
m-319 -35 c6 10 9 8 9 -9 0 -28 -24 -25 -27 4 -2 11 0 14 3 5 5 -11 8 -11 15
0z m-3227 -26 c-7 -16 -24 -21 -24 -6 0 8 7 13 27 20 1 1 0 -6 -3 -14z m3394
-10 c-3 -3 -9 2 -12 12 -6 14 -5 15 5 6 7 -7 10 -15 7 -18z m-1188 -15 c0 -5
-4 -10 -10 -10 -5 0 -10 5 -10 10 0 6 5 10 10 10 6 0 10 -4 10 -10z m950 0 c0
-5 -5 -10 -11 -10 -5 0 -7 5 -4 10 3 6 8 10 11 10 2 0 4 -4 4 -10z m50 0 c0
-5 -2 -10 -4 -10 -3 0 -8 5 -11 10 -3 6 -1 10 4 10 6 0 11 -4 11 -10z m80 -5
c27 -15 20 -19 -17 -9 -13 4 -23 10 -23 15 0 12 11 11 40 -6z m143 3 c-4 -7
-6 -23 -4 -35 1 -13 -2 -23 -8 -23 -6 0 -11 9 -11 20 0 11 -5 20 -11 20 -8 0
-8 5 1 15 15 18 45 21 33 3z m267 -8 c0 -5 -2 -10 -4 -10 -3 0 -8 5 -11 10 -3
6 -1 10 4 10 6 0 11 -4 11 -10z m-523 -25 c3 -9 3 -19 -1 -22 -8 -9 -37 18
-30 28 8 14 24 11 31 -6z m-945 -27 c-9 -9 -12 -7 -12 12 0 19 3 21 12 12 9
-9 9 -15 0 -24z m1493 12 c3 -5 1 -10 -4 -10 -6 0 -11 5 -11 10 0 6 2 10 4 10
3 0 8 -4 11 -10z m-246 -9 c8 -5 9 -11 3 -15 -13 -8 -42 3 -42 15 0 11 21 11
39 0z m-3449 -21 c0 -5 -9 -10 -19 -10 -11 0 -23 5 -26 10 -4 6 5 10 19 10 14
0 26 -4 26 -10z m3438 -38 c2 -7 -2 -10 -12 -6 -9 3 -16 11 -16 16 0 13 23 5
28 -10z m-48 -12 c0 -5 9 -10 20 -10 11 0 20 -4 20 -10 0 -14 -22 -12 -42 4
-20 15 -23 26 -8 26 6 0 10 -4 10 -10z m100 -4 c0 -3 -4 -8 -10 -11 -5 -3 -10
-1 -10 4 0 6 5 11 10 11 6 0 10 -2 10 -4z m150 -26 c0 -5 -7 -10 -15 -10 -8 0
-15 5 -15 10 0 6 7 10 15 10 8 0 15 -4 15 -10z m15 -40 c3 -5 1 -10 -4 -10 -6
0 -11 5 -11 10 0 6 2 10 4 10 3 0 8 -4 11 -10z m-205 -34 c0 -8 -4 -18 -10
-21 -5 -3 -10 3 -10 14 0 12 5 21 10 21 6 0 10 -6 10 -14z m29 -52 c-13 -13
-14 -10 -11 23 5 35 6 36 15 15 8 -17 7 -26 -4 -38z m-3509 36 c0 -5 -5 -10
-11 -10 -5 0 -7 5 -4 10 3 6 8 10 11 10 2 0 4 -4 4 -10z m3600 -71 c0 -11 -4
-17 -10 -14 -5 3 -10 13 -10 21 0 8 5 14 10 14 6 0 10 -9 10 -21z m-3580 -23
c0 -24 -17 -28 -23 -6 -3 13 0 20 9 20 8 0 14 -6 14 -14z m37 -18 c-3 -8 -6
-5 -6 6 -1 11 2 17 5 13 3 -3 4 -12 1 -19z m3527 -4 c16 -6 23 -34 8 -34 -10
0 -32 22 -32 32 0 10 3 10 24 2z m86 -14 c0 -5 -7 -10 -15 -10 -21 0 -19 -18
3 -23 13 -4 12 -5 -5 -6 -30 -1 -39 17 -17 34 23 17 34 19 34 5z m150 0 c0 -5
-2 -10 -4 -10 -3 0 -8 5 -11 10 -3 6 -1 10 4 10 6 0 11 -4 11 -10z m-199 -63
c-1 -12 -15 -9 -19 4 -3 6 1 10 8 8 6 -3 11 -8 11 -12z m-3641 -7 c8 -5 11
-12 7 -16 -4 -4 -15 0 -24 9 -18 18 -8 23 17 7z m3698 -7 c-2 -10 -11 -19 -20
-21 -12 -2 -15 2 -11 17 7 25 36 28 31 4z m-3728 -33 c0 -5 -7 -7 -15 -4 -8 4
-15 8 -15 10 0 2 7 4 15 4 8 0 15 -4 15 -10z m3810 -30 c0 -5 -4 -10 -9 -10
-6 0 -13 5 -16 10 -3 6 1 10 9 10 9 0 16 -4 16 -10z m-3847 -29 c-3 -11 -16
-22 -29 -25 -14 -4 -26 -16 -30 -31 -6 -25 -24 -35 -24 -13 0 10 75 88 85 88
2 0 1 -9 -2 -19z m3877 -33 c0 -11 -8 -10 -31 3 -11 5 -17 14 -14 19 6 10 45
-9 45 -22z m-79 -41 c-10 -9 -11 -8 -5 6 3 10 9 15 12 12 3 -3 0 -11 -7 -18z
m-3931 -7 c0 -5 -4 -10 -10 -10 -5 0 -10 5 -10 10 0 6 5 10 10 10 6 0 10 -4
10 -10z m3900 -5 c0 -9 12 -20 27 -26 22 -8 24 -12 13 -19 -22 -14 -24 -13
-43 19 -20 33 -21 41 -7 41 6 0 10 -7 10 -15z m80 -10 c0 -8 -7 -15 -15 -15
-26 0 -18 20 13 29 1 1 2 -6 2 -14z m50 -5 c0 -5 -4 -10 -10 -10 -5 0 -10 5
-10 10 0 6 5 10 10 10 6 0 10 -4 10 -10z m67 -6 c-3 -3 -12 -4 -19 -1 -8 3 -5
6 6 6 11 1 17 -2 13 -5z m70 -16 c-3 -8 -6 -5 -6 6 -1 11 2 17 5 13 3 -3 4
-12 1 -19z m-103 -8 c-15 -14 -74 -16 -74 -2 0 4 19 8 41 9 23 0 37 -3 33 -7z
m38 -22 c-8 -8 -9 -4 -5 13 4 13 8 18 11 10 2 -7 -1 -18 -6 -23z m-135 0 c-3
-8 -6 -5 -6 6 -1 11 2 17 5 13 3 -3 4 -12 1 -19z m207 -28 c-6 -6 -10 -3 -10
10 0 13 4 16 10 10 7 -7 7 -13 0 -20z m-34 10 c0 -5 -5 -10 -11 -10 -5 0 -7 5
-4 10 3 6 8 10 11 10 2 0 4 -4 4 -10z m90 0 c0 -5 -2 -10 -4 -10 -3 0 -8 5
-11 10 -3 6 -1 10 4 10 6 0 11 -4 11 -10z m-207 -7 c-7 -2 -19 -2 -25 0 -7 3
-2 5 12 5 14 0 19 -2 13 -5z m52 -3 c17 -7 17 -9 3 -9 -28 -1 -21 -21 7 -21
26 0 30 -6 16 -29 -6 -10 -10 -10 -16 -1 -4 6 -17 15 -30 20 -17 7 -22 14 -18
29 6 23 9 24 38 11z m163 -40 c7 -11 10 -20 6 -20 -7 0 -34 27 -34 34 0 13 16
5 28 -14z m-45 -25 c-3 -9 -8 -14 -10 -11 -3 3 -2 9 2 15 9 16 15 13 8 -4z
m32 -5 c3 -5 1 -10 -4 -10 -6 0 -11 5 -11 10 0 6 2 10 4 10 3 0 8 -4 11 -10z
m61 -17 c-7 -7 -26 7 -26 19 0 6 6 6 15 -2 9 -7 13 -15 11 -17z m-41 -22 c6
-1 2 -8 -9 -16 -18 -13 -17 -14 8 -21 14 -3 26 -11 26 -16 0 -6 -7 -7 -16 -4
-9 3 -24 6 -35 6 -10 0 -19 7 -19 15 0 9 -7 18 -15 21 -8 4 -15 10 -15 15 0 7
23 7 75 0z m-4329 -88 c-10 -10 -19 5 -10 18 6 11 8 11 12 0 2 -7 1 -15 -2
-18z m-66 -13 c12 -8 11 -10 -7 -10 -13 0 -23 5 -23 10 0 13 11 13 30 0z
m4475 -130 c3 -5 1 -10 -4 -10 -6 0 -11 5 -11 10 0 6 2 10 4 10 3 0 8 -4 11
-10z m-4500 -20 c-3 -5 -10 -10 -16 -10 -5 0 -9 5 -9 10 0 6 7 10 16 10 8 0
12 -4 9 -10z m4430 -140 c-3 -5 2 -10 11 -10 10 0 15 -3 11 -6 -10 -10 -39 5
-32 16 3 5 8 10 11 10 3 0 2 -4 -1 -10z m-4150 -110 c3 -5 -1 -10 -10 -10 -9
0 -13 5 -10 10 3 6 8 10 10 10 2 0 7 -4 10 -10z m-58 -26 c-3 -3 -12 -4 -19
-1 -8 3 -5 6 6 6 11 1 17 -2 13 -5z m238 -24 c17 -6 14 -9 -15 -13 -61 -10
-164 -17 -158 -11 3 3 28 14 54 24 46 18 71 17 119 0z m515 10 c0 -5 -4 -10
-9 -10 -6 0 -13 5 -16 10 -3 6 1 10 9 10 9 0 16 -4 16 -10z m3456 -55 c-3 -9
-10 -13 -16 -10 -6 4 -5 11 3 20 15 16 22 11 13 -10z m-36 -44 c0 -5 -7 -14
-15 -21 -12 -10 -15 -10 -15 2 0 8 3 18 7 21 9 10 23 9 23 -2z m-3910 -75 c0
-20 -19 -31 -32 -18 -6 6 -7 15 -4 21 10 16 36 13 36 -3z m-230 -18 c0 -16 -3
-19 -11 -11 -6 6 -8 16 -5 22 11 17 16 13 16 -11z m-585 -8 c3 -5 1 -10 -4
-10 -6 0 -11 5 -11 10 0 6 2 10 4 10 3 0 8 -4 11 -10z m625 -20 c0 -5 -7 -10
-16 -10 -8 0 -12 5 -9 10 3 6 10 10 16 10 5 0 9 -4 9 -10z m4170 -10 c0 -5 -7
-10 -15 -10 -8 0 -15 5 -15 10 0 6 7 10 15 10 8 0 15 -4 15 -10z m-65 -20 c3
-5 1 -10 -4 -10 -6 0 -11 5 -11 10 0 6 2 10 4 10 3 0 8 -4 11 -10z m75 -20 c0
-5 -4 -10 -10 -10 -5 0 -10 5 -10 10 0 6 5 10 10 10 6 0 10 -4 10 -10z m90
-21 c0 -6 -4 -7 -10 -4 -5 3 -10 11 -10 16 0 6 5 7 10 4 6 -3 10 -11 10 -16z
m-4855 -59 c3 -5 -3 -10 -15 -10 -12 0 -18 5 -15 10 3 6 10 10 15 10 5 0 12
-4 15 -10z m3404 -188 c-15 -35 -23 -13 -14 36 7 34 8 35 16 14 5 -13 4 -33
-2 -50z m1351 -48 c0 -8 -4 -14 -9 -14 -12 0 -32 26 -25 33 10 9 34 -4 34 -19z
m-4770 -40 c0 -8 -4 -14 -10 -14 -5 0 -10 9 -10 21 0 11 5 17 10 14 6 -3 10
-13 10 -21z m4825 -44 c3 -6 -1 -7 -9 -4 -18 7 -21 14 -7 14 6 0 13 -4 16 -10z
m80 -110 c3 -5 1 -10 -4 -10 -6 0 -11 5 -11 10 0 6 2 10 4 10 3 0 8 -4 11 -10z
m-145 -145 c0 -8 -7 -15 -15 -15 -8 0 -15 7 -15 15 0 8 7 15 15 15 8 0 15 -7
15 -15z m-50 -116 c0 -5 -7 -9 -15 -9 -15 0 -20 12 -9 23 8 8 24 -1 24 -14z
m-3520 -39 c0 -5 -7 -10 -15 -10 -8 0 -15 5 -15 10 0 6 7 10 15 10 8 0 15 -4
15 -10z m3533 -23 c3 -8 1 -20 -4 -28 -6 -10 -9 -7 -9 14 0 29 5 35 13 14z
m-4493 -37 c0 -5 -2 -10 -4 -10 -3 0 -8 5 -11 10 -3 6 -1 10 4 10 6 0 11 -4
11 -10z m4530 -28 c0 -4 -10 -18 -23 -32 -13 -14 -26 -33 -30 -42 -3 -10 -11
-18 -17 -18 -12 0 -13 13 -3 24 4 4 8 15 8 24 0 10 9 18 23 20 14 2 22 10 22
23 0 11 5 17 10 14 6 -3 10 -9 10 -13z m67 -44 c-3 -8 -6 -5 -6 6 -1 11 2 17
5 13 3 -3 4 -12 1 -19z m-40 -10 c-3 -8 -6 -5 -6 6 -1 11 2 17 5 13 3 -3 4
-12 1 -19z m-60 -84 c-3 -3 -12 -4 -19 -1 -8 3 -5 6 6 6 11 1 17 -2 13 -5z
m20 -79 c-10 -20 -13 -22 -18 -7 -8 21 -2 32 16 32 10 0 11 -5 2 -25z m-105 3
c-9 -9 -15 -9 -24 0 -9 9 -7 12 12 12 19 0 21 -3 12 -12z m-3222 -14 c0 -8 -4
-12 -10 -9 -5 3 -10 10 -10 16 0 5 5 9 10 9 6 0 10 -7 10 -16z m3275 6 c3 -5
1 -10 -4 -10 -6 0 -11 5 -11 10 0 6 2 10 4 10 3 0 8 -4 11 -10z m85 -10 c0 -5
-5 -10 -11 -10 -5 0 -7 5 -4 10 3 6 8 10 11 10 2 0 4 -4 4 -10z m-3643 -402
c-3 -8 -6 -5 -6 6 -1 11 2 17 5 13 3 -3 4 -12 1 -19z m-582 -68 c3 -5 -1 -10
-10 -10 -9 0 -13 5 -10 10 3 6 8 10 10 10 2 0 7 -4 10 -10z m345 -102 c0 -14
-16 -16 -34 -3 -25 18 -12 39 14 22 11 -6 20 -15 20 -19z m57 10 c-3 -8 -6 -5
-6 6 -1 11 2 17 5 13 3 -3 4 -12 1 -19z m353 12 c0 -5 -2 -10 -4 -10 -3 0 -8
5 -11 10 -3 6 -1 10 4 10 6 0 11 -4 11 -10z m-510 -19 c0 -22 -35 -69 -44 -60
-9 8 12 62 27 71 17 11 17 10 17 -11z m140 -46 c0 -18 -26 -20 -36 -3 -5 8 -2
9 9 5 10 -3 17 -2 17 3 0 6 2 10 5 10 3 0 5 -7 5 -15z m155 -25 c3 -5 -1 -10
-10 -10 -9 0 -13 5 -10 10 3 6 8 10 10 10 2 0 7 -4 10 -10z m-285 -37 c0 -13
-3 -13 -15 -3 -8 7 -15 16 -15 21 0 5 7 6 15 3 8 -4 15 -13 15 -21z m150 17
c0 -5 -4 -10 -10 -10 -5 0 -10 5 -10 10 0 6 5 10 10 10 6 0 10 -4 10 -10z m90
-37 c0 -10 -4 -14 -8 -8 -4 6 -11 13 -16 18 -5 4 -2 7 7 7 10 0 17 -8 17 -17z
m-119 -26 c-6 -6 -15 -4 -25 6 -23 23 -20 28 9 15 16 -7 22 -15 16 -21z m-81
-17 c0 -5 -5 -10 -11 -10 -5 0 -7 5 -4 10 3 6 8 10 11 10 2 0 4 -4 4 -10z
m1827 -545 c-7 -13 -14 -20 -15 -14 -2 5 2 16 8 24 18 21 20 18 7 -10z m-44
-69 c6 -16 -2 -28 -14 -20 -12 7 -11 34 0 34 5 0 11 -6 14 -14z m-778 -26 c3
-5 -1 -10 -9 -10 -9 0 -16 5 -16 10 0 6 4 10 9 10 6 0 13 -4 16 -10z m825 -34
c0 -3 -4 -8 -10 -11 -5 -3 -10 -1 -10 4 0 6 5 11 10 11 6 0 10 -2 10 -4z"/>
<path d="M3520 5290 c0 -5 -9 -10 -20 -10 -11 0 -20 -4 -20 -10 0 -5 9 -10 20
-10 11 0 20 5 20 10 0 6 9 10 20 10 11 0 20 5 20 10 0 6 -9 10 -20 10 -11 0
-20 -4 -20 -10z"/>
<path d="M3332 5249 c2 -6 8 -10 13 -10 5 0 11 4 13 10 2 6 -4 11 -13 11 -9 0
-15 -5 -13 -11z"/>
<path d="M3072 5235 c-13 -16 -5 -19 22 -9 9 3 16 10 16 15 0 14 -24 10 -38
-6z"/>
<path d="M4570 5105 c0 -8 5 -15 10 -15 6 0 10 7 10 15 0 8 -4 15 -10 15 -5 0
-10 -7 -10 -15z"/>
<path d="M2915 5010 c-3 -5 -1 -10 4 -10 6 0 11 5 11 10 0 6 -2 10 -4 10 -3 0
-8 -4 -11 -10z"/>
<path d="M4775 4980 c3 -5 8 -10 11 -10 2 0 4 5 4 10 0 6 -5 10 -11 10 -5 0
-7 -4 -4 -10z"/>
<path d="M2890 4960 c0 -5 5 -10 11 -10 5 0 7 5 4 10 -3 6 -8 10 -11 10 -2 0
-4 -4 -4 -10z"/>
<path d="M5898 4954 c-9 -14 7 -50 16 -36 4 7 3 19 -2 28 -5 9 -12 13 -14 8z"/>
<path d="M5820 4840 c0 -5 5 -10 11 -10 5 0 7 5 4 10 -3 6 -8 10 -11 10 -2 0
-4 -4 -4 -10z"/>
<path d="M5895 4840 c-3 -5 -12 -7 -20 -3 -8 3 -15 0 -15 -6 0 -6 11 -11 25
-11 16 0 25 6 25 15 0 17 -6 19 -15 5z"/>
<path d="M5950 4840 c0 -5 9 -10 21 -10 11 0 17 5 14 10 -3 6 -13 10 -21 10
-8 0 -14 -4 -14 -10z"/>
<path d="M5996 4813 c-6 -14 -5 -15 5 -6 7 7 10 15 7 18 -3 3 -9 -2 -12 -12z"/>
<path d="M2764 4795 c-8 -30 -1 -40 21 -31 10 3 15 15 13 28 -4 31 -26 34 -34
3z"/>
<path d="M5935 4810 c-3 -5 1 -10 9 -10 8 0 18 5 21 10 3 6 -1 10 -9 10 -8 0
-18 -4 -21 -10z"/>
<path d="M4840 4789 c0 -5 5 -7 10 -4 6 3 10 8 10 11 0 2 -4 4 -10 4 -5 0 -10
-5 -10 -11z"/>
<path d="M5900 4789 c0 -5 5 -7 10 -4 6 3 10 8 10 11 0 2 -4 4 -10 4 -5 0 -10
-5 -10 -11z"/>
<path d="M4860 4760 c0 -5 5 -10 10 -10 6 0 10 5 10 10 0 6 -4 10 -10 10 -5 0
-10 -4 -10 -10z"/>
<path d="M5866 4762 c-2 -4 4 -19 14 -32 15 -20 21 -23 31 -12 11 10 10 12 -4
12 -10 0 -17 8 -17 20 0 20 -14 27 -24 12z"/>
<path d="M5930 4760 c0 -5 4 -10 9 -10 6 0 13 5 16 10 3 6 -1 10 -9 10 -9 0
-16 -4 -16 -10z"/>
<path d="M5978 4743 c7 -3 16 -2 19 1 4 3 -2 6 -13 5 -11 0 -14 -3 -6 -6z"/>
<path d="M6036 4731 c-4 -7 -5 -15 -2 -18 9 -9 19 4 14 18 -4 11 -6 11 -12 0z"/>
<path d="M5865 4700 c-3 -5 -1 -10 4 -10 6 0 11 5 11 10 0 6 -2 10 -4 10 -3 0
-8 -4 -11 -10z"/>
<path d="M5960 4700 c0 -5 14 -10 31 -10 17 0 28 4 24 10 -3 6 -17 10 -31 10
-13 0 -24 -4 -24 -10z"/>
<path d="M4902 4689 c2 -7 10 -15 17 -17 8 -3 12 1 9 9 -2 7 -10 15 -17 17 -8
3 -12 -1 -9 -9z"/>
<path d="M5918 4663 c7 -3 16 -2 19 1 4 3 -2 6 -13 5 -11 0 -14 -3 -6 -6z"/>
<path d="M6168 4598 c7 -7 12 -21 12 -32 0 -12 7 -29 14 -39 13 -16 14 -15 19
10 3 16 2 32 -3 37 -5 5 -6 15 -3 22 4 10 -3 14 -23 14 -22 0 -25 -3 -16 -12z"/>
<path d="M6076 4560 c-16 -5 -33 -7 -38 -4 -4 3 -8 -7 -8 -22 0 -24 2 -26 13
-11 6 9 26 17 42 19 23 2 30 -1 29 -14 -1 -10 2 -18 7 -18 5 0 9 -16 9 -35 0
-39 2 -40 33 -24 l21 12 -24 9 c-23 9 -24 10 -8 22 14 10 15 15 5 25 -9 9 -9
14 1 20 11 6 10 9 -5 13 -10 3 -25 8 -33 11 -8 3 -28 1 -44 -3z"/>
<path d="M6001 4524 c0 -11 3 -14 6 -6 3 7 2 16 -1 19 -3 4 -6 -2 -5 -13z"/>
<path d="M5750 4506 c0 -8 5 -18 10 -21 6 -3 10 1 10 9 0 8 -4 18 -10 21 -5 3
-10 -1 -10 -9z"/>
<path d="M6060 4506 c0 -9 30 -14 35 -6 4 6 -3 10 -14 10 -12 0 -21 -2 -21 -4z"/>
<path d="M6214 4469 c-4 -7 5 -10 27 -7 19 2 34 -2 36 -9 3 -8 -4 -13 -16 -13
-12 0 -21 -4 -21 -10 0 -5 6 -10 14 -10 26 0 28 -20 4 -40 -14 -13 -17 -18 -6
-14 10 3 25 -3 38 -16 11 -11 25 -18 30 -15 17 11 11 23 -15 29 -28 7 -33 24
-10 32 14 6 13 8 -2 20 -17 13 -17 13 0 14 9 0 17 7 17 15 0 10 10 15 28 15
21 0 24 2 12 10 -21 13 -127 13 -136 -1z"/>
<path d="M2740 4460 c0 -5 5 -10 10 -10 6 0 10 5 10 10 0 6 -4 10 -10 10 -5 0
-10 -4 -10 -10z"/>
<path d="M6195 4440 c-3 -5 3 -10 14 -10 12 0 21 5 21 10 0 6 -6 10 -14 10 -8
0 -18 -4 -21 -10z"/>
<path d="M2630 4420 c-12 -8 -11 -10 8 -10 12 0 22 5 22 10 0 13 -11 13 -30 0z"/>
<path d="M6175 4399 c-4 -6 -5 -13 -2 -16 7 -7 27 6 27 18 0 12 -17 12 -25 -2z"/>
<path d="M6231 4394 c0 -11 3 -14 6 -6 3 7 2 16 -1 19 -3 4 -6 -2 -5 -13z"/>
<path d="M6200 4330 c0 -11 5 -20 10 -20 6 0 10 9 10 20 0 11 -4 20 -10 20 -5
0 -10 -9 -10 -20z"/>
<path d="M2525 4320 c-8 -13 4 -32 16 -25 12 8 12 35 0 35 -6 0 -13 -4 -16
-10z"/>
<path d="M6350 4286 c0 -9 5 -16 10 -16 6 0 10 4 10 9 0 6 -4 13 -10 16 -5 3
-10 -1 -10 -9z"/>
<path d="M6180 4269 c0 -12 39 -31 50 -24 21 13 9 32 -20 32 -16 0 -30 -4 -30
-8z"/>
<path d="M6260 4266 c0 -2 7 -7 16 -10 8 -3 12 -2 9 4 -6 10 -25 14 -25 6z"/>
<path d="M6330 4217 c0 -17 -5 -27 -15 -27 -9 0 -12 -6 -9 -15 8 -21 16 -18
38 11 17 24 17 27 2 42 -15 15 -16 14 -16 -11z"/>
<path d="M6255 4210 c4 -6 11 -8 16 -5 14 9 11 15 -7 15 -8 0 -12 -5 -9 -10z"/>
<path d="M6477 4199 c7 -7 15 -10 18 -7 3 3 -2 9 -12 12 -14 6 -15 5 -6 -5z"/>
<path d="M6420 4160 c-12 -8 -11 -10 8 -10 12 0 22 5 22 10 0 13 -11 13 -30 0z"/>
<path d="M6398 4113 c7 -3 16 -2 19 1 4 3 -2 6 -13 5 -11 0 -14 -3 -6 -6z"/>
<path d="M6498 4103 c7 -3 16 -2 19 1 4 3 -2 6 -13 5 -11 0 -14 -3 -6 -6z"/>
<path d="M6350 4060 c0 -5 5 -10 11 -10 5 0 7 5 4 10 -3 6 -8 10 -11 10 -2 0
-4 -4 -4 -10z"/>
<path d="M2435 4050 c-3 -5 -1 -10 4 -10 6 0 11 5 11 10 0 6 -2 10 -4 10 -3 0
-8 -4 -11 -10z"/>
<path d="M6488 4053 c6 -2 18 -2 25 0 6 3 1 5 -13 5 -14 0 -19 -2 -12 -5z"/>
<path d="M6310 4039 c0 -5 5 -7 10 -4 6 3 10 8 10 11 0 2 -4 4 -10 4 -5 0 -10
-5 -10 -11z"/>
<path d="M6545 4000 c14 -15 15 -20 4 -20 -8 0 -26 -8 -42 -18 l-27 -19 34 1
c19 1 34 5 33 10 -1 5 13 13 31 17 19 4 39 12 45 18 15 15 2 14 -23 -1 -16
-11 -23 -9 -40 10 -11 12 -24 22 -27 22 -3 0 2 -9 12 -20z"/>
<path d="M6660 3984 c0 -10 28 -34 39 -34 15 0 14 9 -3 26 -15 14 -36 19 -36
8z"/>
<path d="M4737 3929 c12 -12 -5 -59 -23 -59 -5 0 -18 -6 -27 -12 -15 -12 -15
-15 1 -36 15 -20 22 -22 45 -13 23 9 27 8 28 -7 0 -9 3 -12 5 -6 3 7 14 10 24
7 11 -3 20 -1 20 4 0 5 16 15 35 23 30 12 33 15 18 24 -12 6 -18 6 -21 -2 -2
-7 -9 -9 -15 -5 -7 4 -16 8 -22 8 -13 0 -14 55 0 55 13 1 -54 30 -68 30 -8 0
-8 -3 0 -11z m33 -49 c0 -5 -4 -10 -10 -10 -5 0 -10 5 -10 10 0 6 5 10 10 10
6 0 10 -4 10 -10z m-39 -43 c-1 -12 -15 -9 -19 4 -3 6 1 10 8 8 6 -3 11 -8 11
-12z"/>
<path d="M6470 3921 c0 -5 7 -11 14 -14 10 -4 13 -1 9 9 -6 15 -23 19 -23 5z"/>
<path d="M4100 3891 c-7 -14 -21 -21 -41 -21 -22 0 -32 -6 -36 -19 -3 -11 -11
-17 -18 -15 -7 3 -16 1 -20 -5 -4 -7 3 -11 17 -11 l23 -1 -22 -18 c-13 -11
-23 -24 -23 -30 0 -6 -12 -8 -30 -4 -26 5 -30 3 -30 -16 0 -12 -6 -21 -15 -21
-8 0 -15 -4 -15 -10 0 -5 7 -10 15 -10 8 0 15 5 15 10 0 6 10 8 24 4 13 -3 33
-1 45 5 16 9 22 8 30 -6 9 -15 12 -15 20 -4 5 8 11 9 15 3 8 -13 -17 -33 -43
-35 -12 -1 -21 -6 -21 -12 0 -13 -36 -45 -50 -45 -6 0 -10 -4 -10 -9 0 -5 -6
-16 -13 -23 -20 -21 -47 -66 -47 -78 0 -8 11 -9 31 -5 l31 7 -22 -30 c-18 -25
-20 -33 -10 -51 7 -14 19 -21 33 -19 15 2 27 -7 44 -32 32 -50 51 -67 97 -89
59 -27 75 -31 81 -21 3 5 -5 12 -17 15 -13 4 -37 18 -55 31 -17 13 -41 24 -51
24 -24 0 -33 18 -20 43 6 12 16 15 33 11 33 -8 31 2 -6 37 l-31 29 19 37 c11
21 29 43 41 49 12 6 30 18 40 27 28 26 40 21 48 -20 21 -120 148 -181 243
-117 35 23 75 80 76 109 0 14 45 19 45 6 0 -6 12 -11 26 -11 20 0 29 -9 45
-44 10 -24 26 -47 35 -50 43 -17 134 4 134 31 0 8 10 11 29 7 21 -4 30 -2 35
11 4 12 2 16 -7 12 -8 -3 -20 -1 -28 5 -11 7 -11 11 -1 15 18 7 -34 50 -78 64
-19 6 -42 13 -50 16 -8 4 -18 6 -21 5 -4 -1 -21 3 -37 8 -17 4 -32 5 -34 0 -2
-5 -21 -2 -43 7 -43 16 -89 25 -232 44 -51 7 -93 18 -93 24 0 12 112 65 138
65 10 0 23 5 30 12 7 7 46 12 100 13 61 1 98 7 125 19 20 10 37 21 37 25 0 8
-50 31 -70 31 -9 0 -21 -5 -27 -11 -15 -15 -34 -3 -26 16 7 19 -6 19 -28 0
-14 -13 -19 -14 -30 -3 -9 8 -44 14 -94 15 -172 3 -220 6 -232 15 -8 6 -15 3
-23 -11z m245 -281 c-5 -8 -11 -8 -17 -2 -6 6 -7 16 -3 22 5 8 11 8 17 2 6 -6
7 -16 3 -22z m39 -125 c6 -18 -20 -34 -45 -28 -19 5 -25 24 -12 36 12 13 51 7
57 -8z m-408 -28 c15 6 19 -12 5 -21 -15 -10 -41 5 -41 22 0 12 3 13 11 5 6
-6 18 -9 25 -6z"/>
<path d="M4836 3891 c-4 -5 -2 -12 3 -15 5 -4 12 -2 15 3 4 5 2 12 -3 15 -5 4
-12 2 -15 -3z"/>
<path d="M6544 3889 c-3 -6 -2 -15 3 -20 5 -5 9 -1 9 11 0 23 -2 24 -12 9z"/>
<path d="M6450 3880 c0 -5 5 -10 11 -10 5 0 7 5 4 10 -3 6 -8 10 -11 10 -2 0
-4 -4 -4 -10z"/>
<path d="M6640 3880 c0 -5 5 -10 10 -10 6 0 10 5 10 10 0 6 -4 10 -10 10 -5 0
-10 -4 -10 -10z"/>
<path d="M2870 3860 c0 -5 5 -10 11 -10 5 0 7 5 4 10 -3 6 -8 10 -11 10 -2 0
-4 -4 -4 -10z"/>
<path d="M6610 3850 c0 -5 5 -10 10 -10 6 0 10 5 10 10 0 6 -4 10 -10 10 -5 0
-10 -4 -10 -10z"/>
<path d="M4648 3813 c6 -2 18 -2 25 0 6 3 1 5 -13 5 -14 0 -19 -2 -12 -5z"/>
<path d="M6635 3810 c-3 -5 -1 -10 4 -10 6 0 11 5 11 10 0 6 -2 10 -4 10 -3 0
-8 -4 -11 -10z"/>
<path d="M6590 3720 c0 -5 5 -10 11 -10 5 0 7 5 4 10 -3 6 -8 10 -11 10 -2 0
-4 -4 -4 -10z"/>
<path d="M3726 3521 c-3 -5 3 -11 14 -14 13 -3 20 0 20 9 0 15 -26 19 -34 5z"/>
<path d="M2925 3300 c3 -5 8 -10 11 -10 2 0 4 5 4 10 0 6 -5 10 -11 10 -5 0
-7 -4 -4 -10z"/>
<path d="M2636 3275 c-3 -8 -1 -15 4 -15 6 0 10 7 10 15 0 8 -2 15 -4 15 -2 0
-6 -7 -10 -15z"/>
<path d="M2875 3270 c-3 -5 -2 -10 4 -10 5 0 13 5 16 10 3 6 2 10 -4 10 -5 0
-13 -4 -16 -10z"/>
<path d="M3250 3271 c0 -6 5 -13 10 -16 6 -3 10 1 10 9 0 9 -4 16 -10 16 -5 0
-10 -4 -10 -9z"/>
<path d="M6605 3251 c-6 -11 9 -23 19 -14 9 9 7 23 -3 23 -6 0 -12 -4 -16 -9z"/>
<path d="M2070 3220 c0 -5 5 -10 10 -10 6 0 10 5 10 10 0 6 -4 10 -10 10 -5 0
-10 -4 -10 -10z"/>
<path d="M6643 3193 c-7 -3 -13 -12 -13 -21 0 -15 2 -15 17 1 18 18 16 27 -4
20z"/>
<path d="M6703 2955 c-6 -14 -7 -27 -2 -31 5 -3 9 1 9 9 0 8 7 18 16 21 8 3
12 10 9 16 -10 16 -19 12 -32 -15z"/>
<path d="M3160 2949 c0 -5 5 -7 10 -4 6 3 10 8 10 11 0 2 -4 4 -10 4 -5 0 -10
-5 -10 -11z"/>
<path d="M3195 2950 c4 -6 11 -8 16 -5 14 9 11 15 -7 15 -8 0 -12 -5 -9 -10z"/>
<path d="M6670 2896 c0 -9 5 -16 10 -16 6 0 10 4 10 9 0 6 -4 13 -10 16 -5 3
-10 -1 -10 -9z"/>
<path d="M6647 2853 c-12 -11 -8 -23 8 -23 8 0 15 7 15 15 0 16 -12 20 -23 8z"/>
<path d="M2100 2694 c0 -8 5 -12 10 -9 6 4 8 11 5 16 -9 14 -15 11 -15 -7z"/>
<path d="M6592 2568 c6 -18 28 -21 28 -4 0 9 -7 16 -16 16 -9 0 -14 -5 -12
-12z"/>
<path d="M6567 2550 c3 -11 9 -17 15 -14 5 3 4 12 -3 20 -16 19 -18 18 -12 -6z"/>
<path d="M6609 2524 c-12 -15 -11 -16 11 -9 35 10 49 25 23 25 -11 0 -27 -7
-34 -16z"/>
<path d="M3814 2513 c-7 -7 -24 -13 -38 -13 -20 0 -25 -6 -28 -27 -2 -22 -10
-29 -33 -34 -27 -6 -26 -7 12 -8 23 0 45 4 48 9 10 16 35 12 29 -5 -4 -10 -20
-15 -46 -15 -30 0 -39 -3 -35 -14 4 -9 -3 -16 -16 -20 -12 -3 -18 -9 -14 -13
9 -8 87 -4 102 5 5 4 15 7 20 7 42 3 95 61 95 104 0 12 5 21 10 21 6 0 10 3
10 8 0 12 -103 8 -116 -5z"/>
<path d="M6515 2520 c-3 -5 3 -10 15 -10 12 0 18 5 15 10 -3 6 -10 10 -15 10
-5 0 -12 -4 -15 -10z"/>
<path d="M3468 2425 c2 -14 8 -23 12 -20 10 6 1 45 -10 45 -4 0 -5 -11 -2 -25z"/>
<path d="M3675 2410 c-3 -5 -1 -10 4 -10 6 0 11 5 11 10 0 6 -2 10 -4 10 -3 0
-8 -4 -11 -10z"/>
<path d="M6527 2363 c-14 -14 -6 -32 13 -30 11 1 20 4 20 8 0 11 -27 29 -33
22z"/>
<path d="M4317 2327 c3 -6 7 -17 8 -26 2 -18 20 -67 34 -91 5 -9 12 -34 15
-56 l7 -41 -48 -6 c-26 -3 -83 -1 -126 3 -78 9 -112 5 -101 -11 9 -15 -16 -49
-35 -49 -25 0 -42 -22 -31 -40 12 -20 119 -17 180 4 57 20 86 20 94 0 3 -8 11
-12 17 -9 5 4 20 -1 31 -12 21 -18 21 -18 14 10 -7 28 8 38 18 12 3 -8 12 -15
21 -15 8 0 15 7 15 15 0 8 -8 15 -19 15 -21 0 -36 16 -44 48 -4 17 0 23 18 28
32 8 47 -3 39 -28 -5 -17 -3 -19 16 -13 15 5 20 4 16 -4 -10 -15 4 -55 14 -45
10 10 14 43 12 97 -2 25 -7 37 -17 37 -8 0 -15 7 -15 15 0 8 -9 31 -20 50 -11
20 -18 40 -15 45 3 4 -7 11 -20 14 -14 4 -23 11 -20 16 4 6 -1 13 -9 16 -9 3
-16 12 -16 19 0 8 -9 13 -19 12 -11 0 -17 -5 -14 -10z"/>
<path d="M2760 2260 c0 -5 5 -10 10 -10 6 0 10 5 10 10 0 6 -4 10 -10 10 -5 0
-10 -4 -10 -10z"/>
<path d="M2941 2244 c0 -11 3 -14 6 -6 3 7 2 16 -1 19 -3 4 -6 -2 -5 -13z"/>
<path d="M6480 2250 c0 -5 9 -10 20 -10 11 0 20 5 20 10 0 6 -9 10 -20 10 -11
0 -20 -4 -20 -10z"/>
<path d="M2700 2235 c-16 -19 -7 -30 14 -18 9 5 12 13 7 21 -6 10 -11 10 -21
-3z"/>
<path d="M2680 2171 c0 -12 6 -21 16 -21 9 0 14 7 12 17 -5 25 -28 28 -28 4z"/>
<path d="M6388 2183 c7 -3 16 -2 19 1 4 3 -2 6 -13 5 -11 0 -14 -3 -6 -6z"/>
<path d="M6360 2160 c0 -5 5 -10 11 -10 5 0 7 5 4 10 -3 6 -8 10 -11 10 -2 0
-4 -4 -4 -10z"/>
<path d="M3910 2116 c-10 -13 -9 -17 4 -22 9 -3 28 -3 42 0 14 4 32 2 39 -4
16 -14 61 -9 58 5 -1 6 -24 13 -50 16 -26 3 -55 9 -64 13 -9 4 -21 1 -29 -8z"/>
<path d="M2490 2106 c0 -9 5 -16 10 -16 6 0 10 4 10 9 0 6 -4 13 -10 16 -5 3
-10 -1 -10 -9z"/>
<path d="M2675 2110 c-3 -6 1 -7 9 -4 18 7 21 14 7 14 -6 0 -13 -4 -16 -10z"/>
<path d="M4070 2109 c0 -5 5 -7 10 -4 6 3 10 8 10 11 0 2 -4 4 -10 4 -5 0 -10
-5 -10 -11z"/>
<path d="M3648 2103 c7 -3 16 -2 19 1 4 3 -2 6 -13 5 -11 0 -14 -3 -6 -6z"/>
<path d="M4420 1976 c0 -8 5 -18 10 -21 6 -3 10 1 10 9 0 8 -4 18 -10 21 -5 3
-10 -1 -10 -9z"/>
<path d="M3530 1910 c0 -5 5 -10 10 -10 6 0 10 5 10 10 0 6 -4 10 -10 10 -5 0
-10 -4 -10 -10z"/>
<path d="M3140 1630 c0 -5 5 -10 11 -10 5 0 7 5 4 10 -3 6 -8 10 -11 10 -2 0
-4 -4 -4 -10z"/>
<path d="M3530 1583 c0 -14 -2 -15 -9 -4 -5 8 -11 9 -15 3 -9 -15 5 -20 42
-15 26 4 30 8 21 19 -16 20 -39 17 -39 -3z"/>
<path d="M3457 1570 c-4 -16 -1 -20 11 -18 19 4 23 29 6 35 -6 2 -14 -6 -17
-17z"/>
<path d="M3140 1571 c0 -5 -2 -15 -5 -23 -3 -7 1 -22 8 -32 11 -16 17 -16 34
-6 16 11 25 10 51 -2 31 -16 52 -9 52 18 0 7 6 15 13 17 6 3 -1 6 -16 6 -16 1
-26 -3 -22 -8 9 -15 -15 -24 -30 -11 -8 6 -24 10 -37 8 -19 -2 -23 1 -21 20 2
14 -3 22 -12 22 -8 0 -15 -4 -15 -9z"/>
<path d="M3305 1570 c3 -5 13 -10 21 -10 8 0 14 5 14 10 0 6 -9 10 -21 10 -11
0 -17 -4 -14 -10z"/>
<path d="M4575 1419 c-4 -6 -5 -13 -2 -16 7 -7 27 6 27 18 0 12 -17 12 -25 -2z"/>
<path d="M3070 1240 c0 -5 7 -10 16 -10 8 0 12 5 9 10 -3 6 -10 10 -16 10 -5
0 -9 -4 -9 -10z"/>
<path d="M6010 5060 c0 -5 5 -10 10 -10 6 0 10 5 10 10 0 6 -4 10 -10 10 -5 0
-10 -4 -10 -10z"/>
<path d="M2121 6641 c-1 -24 2 -32 9 -25 7 7 7 19 1 35 -9 23 -10 22 -10 -10z"/>
<path d="M2152 6640 c0 -14 2 -19 5 -12 2 6 2 18 0 25 -3 6 -5 1 -5 -13z"/>
<path d="M1630 6629 c0 -5 5 -7 10 -4 6 3 10 8 10 11 0 2 -4 4 -10 4 -5 0 -10
-5 -10 -11z"/>
<path d="M2957 6634 c-8 -8 3 -34 14 -34 11 0 12 27 0 34 -4 3 -11 3 -14 0z"/>
<path d="M2416 6615 c-3 -8 -1 -15 4 -15 6 0 10 7 10 15 0 8 -2 15 -4 15 -2 0
-6 -7 -10 -15z"/>
<path d="M1790 6606 c0 -9 5 -16 10 -16 6 0 10 4 10 9 0 6 -4 13 -10 16 -5 3
-10 -1 -10 -9z"/>
<path d="M2085 6600 c3 -5 8 -10 11 -10 2 0 4 5 4 10 0 6 -5 10 -11 10 -5 0
-7 -4 -4 -10z"/>
<path d="M2290 6594 c0 -8 5 -12 10 -9 6 3 10 10 10 16 0 5 -4 9 -10 9 -5 0
-10 -7 -10 -16z"/>
<path d="M2520 6600 c0 -5 10 -10 23 -10 18 0 19 2 7 10 -19 13 -30 13 -30 0z"/>
<path d="M2780 6591 c0 -17 26 -24 47 -12 16 9 16 10 1 11 -9 0 -23 3 -32 6
-9 3 -16 1 -16 -5z"/>
<path d="M2674 6579 c-3 -6 -1 -16 5 -22 8 -8 11 -5 11 11 0 24 -5 28 -16 11z"/>
<path d="M2860 6581 c0 -13 21 -19 43 -13 15 4 16 7 5 13 -17 12 -48 11 -48 0z"/>
<path d="M1410 6565 c0 -8 6 -15 14 -15 22 0 28 17 10 24 -22 9 -24 8 -24 -9z"/>
<path d="M2146 6561 c-4 -7 -5 -15 -2 -18 9 -9 19 4 14 18 -4 11 -6 11 -12 0z"/>
<path d="M1106 6541 c-29 -11 1 -19 39 -10 17 4 25 7 18 8 -6 0 -17 3 -25 5
-7 3 -22 1 -32 -3z"/>
<path d="M1340 6530 c0 -5 5 -10 11 -10 5 0 7 5 4 10 -3 6 -8 10 -11 10 -2 0
-4 -4 -4 -10z"/>
<path d="M2808 6533 c7 -3 16 -2 19 1 4 3 -2 6 -13 5 -11 0 -14 -3 -6 -6z"/>
<path d="M1178 6512 c-32 -19 -37 -42 -9 -42 23 0 44 24 39 44 -3 13 -7 13
-30 -2z"/>
<path d="M2711 6506 c-7 -8 -8 -17 -3 -20 6 -3 13 1 16 10 9 23 2 28 -13 10z"/>
<path d="M1093 6495 c0 -8 7 -13 16 -12 25 4 28 20 5 23 -13 2 -21 -2 -21 -11z"/>
<path d="M1425 6500 c-3 -5 1 -10 10 -10 9 0 13 5 10 10 -3 6 -8 10 -10 10 -2
0 -7 -4 -10 -10z"/>
<path d="M917 6493 c-11 -11 -8 -19 18 -47 14 -15 25 -23 25 -17 0 5 -4 13
-10 16 -5 3 -10 17 -10 31 0 23 -10 31 -23 17z"/>
<path d="M827 6453 c-8 -7 11 -33 23 -33 5 0 6 9 3 20 -5 20 -15 25 -26 13z"/>
<path d="M545 6440 c3 -5 8 -10 11 -10 2 0 4 5 4 10 0 6 -5 10 -11 10 -5 0 -7
-4 -4 -10z"/>
<path d="M725 6440 c-4 -6 5 -10 19 -10 14 0 26 5 26 10 0 6 -9 10 -19 10 -11
0 -23 -4 -26 -10z"/>
<path d="M570 6409 c0 -5 5 -7 10 -4 6 3 10 8 10 11 0 2 -4 4 -10 4 -5 0 -10
-5 -10 -11z"/>
<path d="M610 6381 c0 -10 9 -29 19 -42 15 -19 19 -20 17 -7 -1 10 -5 21 -9
24 -4 4 -7 16 -7 26 0 10 -4 18 -10 18 -5 0 -10 -9 -10 -19z"/>
<path d="M1020 6370 c0 -5 5 -10 10 -10 6 0 10 5 10 10 0 6 -4 10 -10 10 -5 0
-10 -4 -10 -10z"/>
<path d="M1165 6370 c-3 -5 -1 -10 4 -10 6 0 11 5 11 10 0 6 -2 10 -4 10 -3 0
-8 -4 -11 -10z"/>
<path d="M380 6363 c0 -7 6 -15 13 -20 16 -10 87 -11 81 -1 -3 5 -20 8 -38 8
-17 0 -37 5 -44 12 -9 9 -12 9 -12 1z"/>
<path d="M685 6340 c4 -6 11 -8 16 -5 14 9 11 15 -7 15 -8 0 -12 -5 -9 -10z"/>
<path d="M730 6340 c-13 -8 -12 -10 3 -10 9 0 17 5 17 10 0 12 -1 12 -20 0z"/>
<path d="M176 6263 c5 -5 11 -12 15 -16 3 -4 12 -1 19 8 11 13 9 15 -15 15
-16 0 -24 -3 -19 -7z"/>
<path d="M10 6200 c0 -5 5 -10 10 -10 6 0 10 5 10 10 0 6 -4 10 -10 10 -5 0
-10 -4 -10 -10z"/>
<path d="M317 6193 c-4 -3 -7 -11 -7 -17 0 -6 5 -5 12 2 6 6 9 14 7 17 -3 3
-9 2 -12 -2z"/>
<path d="M80 6158 c0 -18 5 -40 10 -48 7 -11 10 -4 10 27 0 23 -4 45 -10 48
-6 4 -10 -7 -10 -27z"/>
<path d="M1278 3033 c7 -3 16 -2 19 1 4 3 -2 6 -13 5 -11 0 -14 -3 -6 -6z"/>
<path d="M6930 1295 c12 -15 23 -22 91 -58 l34 -18 -25 21 c-49 41 -93 70
-106 70 -4 0 -1 -7 6 -15z"/>
<path d="M6952 936 c11 -21 89 -86 103 -86 3 0 5 11 5 24 0 15 -10 30 -27 42
-16 10 -34 24 -41 31 -7 7 -22 13 -33 13 -18 0 -18 -2 -7 -24z"/>
<path d="M4500 600 c0 -5 5 -10 10 -10 6 0 10 5 10 10 0 6 -4 10 -10 10 -5 0
-10 -4 -10 -10z"/>
<path d="M6980 392 c0 -34 4 -40 40 -60 l40 -21 0 45 c0 24 -2 44 -4 44 -2 0
-20 7 -40 15 l-36 15 0 -38z"/>
<path d="M7023 123 c-15 -26 -33 -57 -38 -68 -14 -26 -60 -25 -334 3 -250 27
-277 27 -410 3 -58 -11 -191 -27 -296 -36 -104 -9 -197 -18 -205 -19 -8 -2
285 -4 653 -4 l667 -1 0 85 c0 46 -2 84 -5 84 -2 0 -17 -21 -32 -47z"/>
<path d="M5355 10 l-70 -6 78 -2 c50 -1 76 2 72 8 -3 6 -7 9 -8 8 -1 -1 -33
-4 -72 -8z"/>
</g>
</svg>
